<?xml version="1.0" encoding="utf-8"?>
<svg id="master-artboard" viewBox="0 0 236.0712432861328 86.60333251953125" version="1.1" xmlns="http://www.w3.org/2000/svg" x="0px" y="0px" style="enable-background:new 0 0 1096 780;" width="236.0712432861328px" height="86.60333251953125px"><rect id="ee-background" x="0" y="0" width="236.0712432861328" height="86.60333251953125" style="fill: white; fill-opacity: 0; pointer-events: none;"/>


<path class="st1" d="M96,690.4h148.9c2.8-1.1,4.7-3.8,4.7-7v0c0-4.2-3.4-7.5-7.5-7.5l-0.9,0v-0.3l-39.7,0c-4.2,0-7.5-3.4-7.5-7.5&#10;&#9;&#9;l0,0c0-4.2,3.4-7.5,7.5-7.5l15.4,0v-0.1l59.7,0.1c4.2,0,7.5-3.4,7.5-7.5v0c0-4.2-3.4-7.5-7.5-7.5l-126.5-0.1&#10;&#9;&#9;c-4.2,0-7.5,3.4-7.5,7.5l0,0c0,4.2,3.4,7.5,7.5,7.5l8.1,0v0.3l8,0c4.2,0,7.5,3.4,7.5,7.5l0,0c0,4.2-3.4,7.5-7.5,7.5l-8,0v0.1&#10;&#9;&#9;l-59.7-0.1c-4.2,0-7.5,3.4-7.5,7.5v0C91,686.6,93.1,689.4,96,690.4z" style="fill: rgb(251, 57, 125);" transform="matrix(1, 0, 0, 1, -70.11875915527344, -624.2517700195312)"/>
</svg>