<?xml version="1.0" encoding="utf-8"?>
<svg id="master-artboard" viewBox="0 0 1400 1200" version="1.1" xmlns="http://www.w3.org/2000/svg" x="0px" y="0px" style="enable-background:new 0 0 1400 1200;" width="1400px" height="1200px">

<path d="M 0 0 H 1400 V 1200 H 0 V 0 Z" class="st0" style="fill-rule: evenodd; clip-rule: evenodd; fill: rgb(240, 238, 233); fill-opacity: 0;" transform="matrix(0.9999999999999999, 0, 0, 0.9999999999999999, 0, -7.105427357601002e-15)"/><g transform="matrix(0.9999999999999999, 0, 0, 0.9999999999999999, 0, -1.4210854715202004e-14)">
			<path class="st1" d="M717.6,361.5H578.3c-18.9-5.7-32.6-23.2-32.6-43.9v0c0-23.1,17-42.2,39.2-45.4h33.7&#10;&#9;&#9;&#9;&#9;c26.6,0,48.1-21.5,48.1-48.1v0c0-26.6-21.5-48.1-48.1-48.1H266.1c-26.6,0-48.1,21.5-48.1,48.1v0c0,26.6,21.5,48.1,48.1,48.1h34.1&#10;&#9;&#9;&#9;&#9;c22.2,3.3,39.2,22.3,39.2,45.4v0c0,20.7-13.7,38.2-32.6,43.9h-93.9c-26.6,0-48.1,21.5-48.1,48.1v0c0,26.6,21.5,48.1,48.1,48.1&#10;&#9;&#9;&#9;&#9;h85.4c7.8,6,12.9,15.5,12.9,26.1c0,8.9-3.5,16.9-9.2,22.8H157.3c-13.2,0-23.9,10.7-23.9,23.9s10.7,23.9,23.9,23.9h17.8&#10;&#9;&#9;&#9;&#9;c10.3,3.4,17.8,13.2,17.8,24.7c0,7.2-2.9,13.6-7.6,18.3h-25.2c-26.6,0-48.1,19.5-48.1,43.6v0c0,24.1,21.5,43.6,48.1,43.6h40.9&#10;&#9;&#9;&#9;&#9;c8.7,6,14.4,15.7,14.4,26.8c0,11.6-6.3,21.8-15.8,27.7h-21.3c-22,0-39.9,17.9-39.9,39.9v0c0,22,17.9,39.9,39.9,39.9h126.2h166.3&#10;&#9;&#9;&#9;&#9;h126.2c22,0,39.9-17.9,39.9-39.9v0c0-22-17.9-39.9-39.9-39.9h-92.6c-9.5-5.9-15.8-16.1-15.8-27.7c0-11,5.7-20.8,14.4-26.8h9.6&#10;&#9;&#9;&#9;&#9;h152.1c26.6,0,48.1-19.5,48.1-43.6v0c0-24.1-21.5-43.6-48.1-43.6H512.7h-106c-4.7-4.7-7.6-11.2-7.6-18.3&#10;&#9;&#9;&#9;&#9;c0-11.5,7.5-21.2,17.8-24.7h106.2H694c13.2,0,23.9-10.7,23.9-23.9s-10.7-23.9-23.9-23.9H581.9c-5.7-5.9-9.2-14-9.2-22.8&#10;&#9;&#9;&#9;&#9;c0-10.7,5.1-20.1,12.9-26.1h132.1c26.6,0,48.1-21.5,48.1-48.1v0C765.7,383,744.2,361.5,717.6,361.5z" style="fill-rule: evenodd; clip-rule: evenodd; fill: rgb(245, 247, 242);"/>
		</g><path class="st1" d="M662.8,625.5h174.4c18.2,5.5,31.4,22.4,31.4,42.4v0c0,22.3-16.4,40.7-37.8,43.8h-32.6&#10;&#9;&#9;&#9;&#9;c-25.6,0-46.4,20.8-46.4,46.4v0c0,25.6,20.8,46.4,46.4,46.4H1236c25.6,0,46.4-20.8,46.4-46.4v0c0-25.6-20.8-46.4-46.4-46.4&#10;&#9;&#9;&#9;&#9;h-130.3c-21.4-3.1-37.8-21.6-37.8-43.8v0c0-20,13.2-36.9,31.4-42.4h90.6c25.6,0,46.4-20.8,46.4-46.4v0&#10;&#9;&#9;&#9;&#9;c0-25.6-20.8-46.4-46.4-46.4h-82.4c-7.6-5.8-12.4-14.9-12.4-25.2c0-8.6,3.4-16.3,8.9-22h139.6c12.7,0,23-10.3,23-23&#10;&#9;&#9;&#9;&#9;s-10.3-23-23-23h-17.2c-10-3.3-17.2-12.7-17.2-23.8c0-6.9,2.8-13.2,7.3-17.7h24.3c25.6,0,46.4-18.9,46.4-42.1v0&#10;&#9;&#9;&#9;&#9;c0-23.3-20.8-42.1-46.4-42.1h-39.5c-8.4-5.8-13.9-15.2-13.9-25.8c0-11.2,6.1-21,15.2-26.7h20.6c21.3,0,38.5-17.2,38.5-38.5v0&#10;&#9;&#9;&#9;&#9;c0-21.3-17.2-38.5-38.5-38.5h-121.8H940.9H730c-21.3,0-38.5,17.2-38.5,38.5v0c0,21.3,17.2,38.5,38.5,38.5h104.6&#10;&#9;&#9;&#9;&#9;c9.1,5.7,15.2,15.5,15.2,26.7c0,10.6-5.5,20.1-13.9,25.8h-9.3H785c-25.6,0-46.4,18.9-46.4,42.1v0c0,23.3,20.8,42.1,46.4,42.1&#10;&#9;&#9;&#9;&#9;h115.5h102.3c4.5,4.5,7.3,10.8,7.3,17.7c0,11.1-7.2,20.5-17.2,23.8H890.5H704c-12.7,0-23,10.3-23,23s10.3,23,23,23h129.8&#10;&#9;&#9;&#9;&#9;c5.5,5.7,8.9,13.5,8.9,22c0,10.3-4.9,19.4-12.4,25.2H662.8c-25.6,0-46.4,20.8-46.4,46.4v0C616.4,604.7,637.2,625.5,662.8,625.5z" style="fill-rule: evenodd; clip-rule: evenodd; fill: rgb(245, 247, 242);" transform="matrix(0.9999999999999999, 0, 0, 0.9999999999999999, 0, -2.1316282072803006e-14)"/><path class="st2" d="M676.1,938l98.1-52.4L566,844c-12.1,6.5-86.8,45.9-97.9,52.5L676.1,938z" style="fill-rule: evenodd; clip-rule: evenodd; fill: rgb(187, 217, 142);" transform="matrix(0.9999999999999999, 0, 0, 0.9999999999999999, 0, -2.1316282072803006e-14)"/><path d="M 479.6000061035156 894.4000244140625 L 676.2999877929688 933.5999755859375 L 762 887.7999877929688 L 565.4000244140625 848.5 Z" class="st3" style="fill-rule: evenodd; clip-rule: evenodd; fill: rgb(84, 133, 90);" transform="matrix(0.9999999999999999, 0, 0, 0.9999999999999999, 0, -2.1316282072803006e-14)"/><path class="st2" d="M602.5,913.7l60.4,12.2c10.8-5.4,22.4-7.8,31.6-6.3l37.8-20.2c-8.2-2.1-7-6.7,2.8-12.1L674,875.2&#10;&#9;&#9;&#9;&#9;c-0.9,2.1,0.3,1.3-1.6,4.8c-5,9.5-23.2,20.4-45.7,27.6C612.7,912.1,611.5,911.5,602.5,913.7z" style="fill-rule: evenodd; clip-rule: evenodd; fill: rgb(187, 217, 142);" transform="matrix(0.9999999999999999, 0, 0, 0.9999999999999999, 0, -2.1316282072803006e-14)"/><path class="st2" d="M546.9,862.8l-36,19.1c-1.1,1.2-0.7,0.5,0.3,1.3c1.2,0.9,3.8,0.9,3.5,3.9c-0.3,2.8-4.2,4.4-7.4,7.7&#10;&#9;&#9;&#9;&#9;l60.1,12.1l1-2.5c0.9-8.7,22.6-22,47-30c3.6-1.2,9.3-2.7,12.2-3.3l12.1-2.5l-60.4-12.1c-6.8,2.1-9.4,4.1-16.7,5.6&#10;&#9;&#9;&#9;&#9;C553.5,863.7,553.7,862.4,546.9,862.8z" style="fill-rule: evenodd; clip-rule: evenodd; fill: rgb(187, 217, 142);" transform="matrix(0.9999999999999999, 0, 0, 0.9999999999999999, 0, -2.1316282072803006e-14)"/><path class="st2" d="M639,880.5c-5.7-0.7-11.8,0.1-18.3,3.2c-17,8.2,6.9,9.3-7.1,14.4c-5.1,1.9-13.7,1.1-5.6-3.7l-6.8-1.2&#10;&#9;&#9;&#9;&#9;c-7.2,4.2-8,6.8-2.3,8.5l-5,2.8l3.3,0.8l5.4-2.9c13.4,1.3,28-6,24.4-10.8c-1.3-1.8-6.3-3.3-0.5-6.2c3.3-1.7,6.8-2.2,8.9-1.2&#10;&#9;&#9;&#9;&#9;c1.5,0.6,0.4,1.7-0.4,2.5l-1.5,1.5l5.9,1.2c3.8-2.1,5.5-3.1,6-5c0.3-1.3-0.2-2.3-2.7-3.1l5.8-3.2l-3.6-0.7L639,880.5z" style="fill-rule: evenodd; clip-rule: evenodd; fill: rgb(187, 217, 142);" transform="matrix(0.9999999999999999, 0, 0, 0.9999999999999999, 0, -2.1316282072803006e-14)"/><path class="st3" d="M691.3,896.5c-16.1-1.2-36.6,12.1-20.1,13.3C686.5,910.8,706.9,897.7,691.3,896.5z" style="fill-rule: evenodd; clip-rule: evenodd; fill: rgb(84, 133, 90);" transform="matrix(0.9999999999999999, 0, 0, 0.9999999999999999, 0, -2.1316282072803006e-14)"/><path class="st3" d="M571.7,872.7c-16.5-1.8-36.4,11.2-21.8,13C564.6,887.4,586.1,874.2,571.7,872.7z" style="fill-rule: evenodd; clip-rule: evenodd; fill: rgb(84, 133, 90);" transform="matrix(0.9999999999999999, 0, 0, 0.9999999999999999, 0, -2.1316282072803006e-14)"/><path class="st2" d="M1035.8,987.9l-97.1-47.4l206.2-37.7c11.9,5.9,86,41.6,96.9,47.5L1035.8,987.9z" style="fill-rule: evenodd; clip-rule: evenodd; fill: rgb(187, 217, 142);" transform="matrix(0.9999999999999999, 0, 0, 0.9999999999999999, 0, -2.1316282072803006e-14)"/><path d="M 1230.4000244140625 948.4000244140625 L 1035.5 983.9000244140625 L 950.7000122070312 942.5 L 1145.4000244140625 906.9000244140625 Z" class="st3" style="fill-rule: evenodd; clip-rule: evenodd; fill: rgb(84, 133, 90);" transform="matrix(0.9999999999999999, 0, 0, 0.9999999999999999, 0, -2.1316282072803006e-14)"/><path class="st2" d="M1108.6,965.9l-59.8,11.1c-10.7-4.9-22.2-7.1-31.3-5.7L980.1,953c8.1-1.9,6.9-6.1-2.8-10.9l60.5-11&#10;&#9;&#9;&#9;&#9;c0.9,1.9-0.3,1.1,1.6,4.4c5,8.6,23,18.5,45.2,25C1098.6,964.5,1099.7,963.9,1108.6,965.9z" style="fill-rule: evenodd; clip-rule: evenodd; fill: rgb(187, 217, 142);" transform="matrix(0.9999999999999999, 0, 0, 0.9999999999999999, 0, -2.1316282072803006e-14)"/><path class="st2" d="M1163.7,919.8l35.7,17.3c1.1,1.1,0.7,0.5-0.3,1.2c-1.2,0.8-3.8,0.8-3.5,3.5c0.3,2.6,4.2,4,7.3,6.9&#10;&#9;&#9;&#9;&#9;l-59.5,10.9l-1-2.3c-0.9-7.9-22.4-20-46.6-27.2c-3.6-1.1-9.2-2.4-12.1-3l-12-2.2l59.8-11c6.8,1.9,9.3,3.7,16.6,5&#10;&#9;&#9;&#9;&#9;C1157.2,920.6,1156.9,919.5,1163.7,919.8z" style="fill-rule: evenodd; clip-rule: evenodd; fill: rgb(187, 217, 142);" transform="matrix(0.9999999999999999, 0, 0, 0.9999999999999999, 0, -2.1316282072803006e-14)"/><path class="st2" d="M1072.5,935.8c5.6-0.6,11.7,0.1,18.2,2.9c16.9,7.4-6.8,8.4,7,13.1c5.1,1.7,13.5,1,5.6-3.4l6.7-1.1&#10;&#9;&#9;&#9;&#9;c7.2,3.8,8,6.1,2.3,7.7l5,2.6l-3.2,0.7l-5.3-2.6c-13.3,1.2-27.7-5.4-24.2-9.8c1.3-1.6,6.2-3,0.5-5.6c-3.3-1.5-6.8-2-8.9-1.1&#10;&#9;&#9;&#9;&#9;c-1.4,0.6-0.4,1.5,0.4,2.2l1.5,1.3l-5.9,1.1c-3.7-1.9-5.5-2.8-5.9-4.5c-0.3-1.2,0.2-2.1,2.7-2.8l-5.8-2.9l3.5-0.7L1072.5,935.8z" style="fill-rule: evenodd; clip-rule: evenodd; fill: rgb(187, 217, 142);" transform="matrix(0.9999999999999999, 0, 0, 0.9999999999999999, 0, -2.1316282072803006e-14)"/><path class="st3" d="M1020.7,950.3c16-1.1,36.2,11,19.9,12C1025.4,963.3,1005.2,951.4,1020.7,950.3z" style="fill-rule: evenodd; clip-rule: evenodd; fill: rgb(84, 133, 90);" transform="matrix(0.9999999999999999, 0, 0, 0.9999999999999999, 0, -2.1316282072803006e-14)"/><path class="st3" d="M1139.2,928.7c16.3-1.6,36.1,10.1,21.6,11.7C1146.1,942.1,1124.9,930.2,1139.2,928.7z" style="fill-rule: evenodd; clip-rule: evenodd; fill: rgb(84, 133, 90);" transform="matrix(0.9999999999999999, 0, 0, 0.9999999999999999, 0, -2.1316282072803006e-14)"/><path class="st2" d="M944.6,941.2l-97.1-47.4l206.2-37.7c11.9,5.9,86,41.6,96.9,47.5L944.6,941.2z" style="fill-rule: evenodd; clip-rule: evenodd; fill: rgb(187, 217, 142);" transform="matrix(0.9999999999999999, 0, 0, 0.9999999999999999, 0, -2.1316282072803006e-14)"/><path d="M 1139.199951171875 901.7999877929688 L 944.4000244140625 937.2999877929688 L 859.5999755859375 895.7999877929688 L 1054.300048828125 860.2999877929688 Z" class="st3" style="fill-rule: evenodd; clip-rule: evenodd; fill: rgb(84, 133, 90);" transform="matrix(0.9999999999999999, 0, 0, 0.9999999999999999, 0, -2.1316282072803006e-14)"/><path class="st2" d="M1017.5,919.2l-59.8,11.1c-10.7-4.9-22.2-7.1-31.3-5.7L889,906.4c8.1-1.9,6.9-6.1-2.8-10.9l60.5-11&#10;&#9;&#9;&#9;&#9;c0.9,1.9-0.3,1.1,1.6,4.4c5,8.6,23,18.5,45.2,25C1007.4,917.8,1008.6,917.3,1017.5,919.2z" style="fill-rule: evenodd; clip-rule: evenodd; fill: rgb(187, 217, 142);" transform="matrix(0.9999999999999999, 0, 0, 0.9999999999999999, 0, -2.1316282072803006e-14)"/><path class="st2" d="M1072.5,873.2l35.7,17.3c1.1,1.1,0.7,0.5-0.3,1.2c-1.2,0.8-3.8,0.8-3.5,3.5c0.3,2.6,4.2,4,7.3,6.9&#10;&#9;&#9;&#9;&#9;l-59.5,10.9l-1-2.3c-0.9-7.9-22.4-20-46.6-27.2c-3.6-1.1-9.2-2.4-12.1-3l-12-2.2l59.8-11c6.8,1.9,9.3,3.7,16.6,5&#10;&#9;&#9;&#9;&#9;C1066.1,874,1065.8,872.8,1072.5,873.2z" style="fill-rule: evenodd; clip-rule: evenodd; fill: rgb(187, 217, 142);" transform="matrix(0.9999999999999999, 0, 0, 0.9999999999999999, 0, -2.1316282072803006e-14)"/><path class="st2" d="M981.3,889.2c5.6-0.6,11.7,0.1,18.2,2.9c16.9,7.4-6.8,8.4,7,13.1c5.1,1.7,13.5,1,5.6-3.4l6.7-1.1&#10;&#9;&#9;&#9;&#9;c7.2,3.8,8,6.1,2.3,7.7l5,2.6l-3.2,0.7l-5.3-2.6c-13.3,1.2-27.7-5.4-24.2-9.8c1.3-1.6,6.2-3,0.5-5.6c-3.3-1.5-6.8-2-8.9-1.1&#10;&#9;&#9;&#9;&#9;c-1.4,0.6-0.4,1.5,0.4,2.2l1.5,1.3l-5.9,1.1c-3.7-1.9-5.5-2.8-5.9-4.5c-0.3-1.2,0.2-2.1,2.7-2.8l-5.8-2.9l3.5-0.7L981.3,889.2z" style="fill-rule: evenodd; clip-rule: evenodd; fill: rgb(187, 217, 142);" transform="matrix(0.9999999999999999, 0, 0, 0.9999999999999999, 0, -2.1316282072803006e-14)"/><path class="st3" d="M929.5,903.7c16-1.1,36.2,11,19.9,12C934.3,916.7,914.1,904.8,929.5,903.7z" style="fill-rule: evenodd; clip-rule: evenodd; fill: rgb(84, 133, 90);" transform="matrix(0.9999999999999999, 0, 0, 0.9999999999999999, 0, -2.1316282072803006e-14)"/><path class="st3" d="M1048.1,882.1c16.3-1.6,36.1,10.1,21.6,11.7C1055,895.5,1033.7,883.5,1048.1,882.1z" style="fill-rule: evenodd; clip-rule: evenodd; fill: rgb(84, 133, 90);" transform="matrix(0.9999999999999999, 0, 0, 0.9999999999999999, 0, -2.1316282072803006e-14)"/><path class="st2" d="M832.8,1026.3l-97.1-47.4l206.2-37.7c11.9,5.9,86,41.6,96.9,47.5L832.8,1026.3z" style="fill-rule: evenodd; clip-rule: evenodd; fill: rgb(187, 217, 142);" transform="matrix(0.9999999999999999, 0, 0, 0.9999999999999999, 0, -2.1316282072803006e-14)"/><path d="M 1027.300048828125 986.7999877929688 L 832.5 1022.2999877929688 L 747.7000122070312 980.9000244140625 L 942.4000244140625 945.2999877929688 Z" class="st3" style="fill-rule: evenodd; clip-rule: evenodd; fill: rgb(84, 133, 90);" transform="matrix(0.9999999999999999, 0, 0, 0.9999999999999999, 0, -2.1316282072803006e-14)"/><path class="st2" d="M905.6,1004.3l-59.8,11.1c-10.7-4.9-22.2-7.1-31.3-5.7l-37.4-18.3c8.1-1.9,6.9-6.1-2.8-10.9l60.5-11&#10;&#9;&#9;&#9;&#9;c0.9,1.9-0.3,1.1,1.6,4.4c5,8.6,23,18.5,45.2,25C895.5,1002.9,896.7,1002.4,905.6,1004.3z" style="fill-rule: evenodd; clip-rule: evenodd; fill: rgb(187, 217, 142);" transform="matrix(0.9999999999999999, 0, 0, 0.9999999999999999, 0, -2.1316282072803006e-14)"/><path class="st2" d="M960.7,958.3l35.7,17.3c1.1,1.1,0.7,0.5-0.3,1.2c-1.2,0.8-3.8,0.8-3.5,3.5c0.3,2.6,4.2,4,7.3,6.9l-59.5,10.9&#10;&#9;&#9;&#9;&#9;l-1-2.3c-0.9-7.9-22.4-20-46.6-27.2c-3.6-1.1-9.2-2.4-12.1-3l-12-2.2l59.8-11c6.8,1.9,9.3,3.7,16.6,5&#10;&#9;&#9;&#9;&#9;C954.2,959.1,953.9,957.9,960.7,958.3z" style="fill-rule: evenodd; clip-rule: evenodd; fill: rgb(187, 217, 142);" transform="matrix(0.9999999999999999, 0, 0, 0.9999999999999999, 0, -2.1316282072803006e-14)"/><path class="st2" d="M869.5,974.3c5.6-0.6,11.7,0.1,18.2,2.9c16.9,7.4-6.8,8.4,7,13.1c5.1,1.7,13.5,1,5.6-3.4l6.7-1.1&#10;&#9;&#9;&#9;&#9;c7.2,3.8,8,6.1,2.3,7.7l5,2.6l-3.2,0.7l-5.3-2.6c-13.3,1.2-27.7-5.4-24.2-9.8c1.3-1.6,6.2-3,0.5-5.6c-3.3-1.5-6.8-2-8.9-1.1&#10;&#9;&#9;&#9;&#9;c-1.4,0.6-0.4,1.5,0.4,2.2l1.5,1.3l-5.9,1.1c-3.7-1.9-5.5-2.8-5.9-4.5c-0.3-1.2,0.2-2.1,2.7-2.8l-5.8-2.9l3.5-0.7L869.5,974.3z" style="fill-rule: evenodd; clip-rule: evenodd; fill: rgb(187, 217, 142);" transform="matrix(0.9999999999999999, 0, 0, 0.9999999999999999, 0, -2.1316282072803006e-14)"/><path class="st3" d="M817.6,988.8c16-1.1,36.2,11,19.9,12C822.4,1001.7,802.2,989.8,817.6,988.8z" style="fill-rule: evenodd; clip-rule: evenodd; fill: rgb(84, 133, 90);" transform="matrix(0.9999999999999999, 0, 0, 0.9999999999999999, 0, -2.1316282072803006e-14)"/><path class="st3" d="M936.2,967.2c16.3-1.6,36.1,10.1,21.6,11.7C943.1,980.5,921.9,968.6,936.2,967.2z" style="fill-rule: evenodd; clip-rule: evenodd; fill: rgb(84, 133, 90);" transform="matrix(0.9999999999999999, 0, 0, 0.9999999999999999, 0, -2.1316282072803006e-14)"/><path class="st2" d="M739.9,992l-97.1-47.4L849,906.9c11.9,5.9,86,41.6,96.9,47.5L739.9,992z" style="fill-rule: evenodd; clip-rule: evenodd; fill: rgb(187, 217, 142);" transform="matrix(0.9999999999999999, 0, 0, 0.9999999999999999, 0, -2.1316282072803006e-14)"/><path d="M 934.5 952.5 L 739.7000122070312 988 L 654.9000244140625 946.5999755859375 L 849.5999755859375 911 Z" class="st3" style="fill-rule: evenodd; clip-rule: evenodd; fill: rgb(84, 133, 90);" transform="matrix(0.9999999999999999, 0, 0, 0.9999999999999999, 0, -2.1316282072803006e-14)"/><path class="st2" d="M812.8,970L753,981.1c-10.7-4.9-22.2-7.1-31.3-5.7l-37.4-18.3c8.1-1.9,6.9-6.1-2.8-10.9l60.5-11&#10;&#9;&#9;&#9;&#9;c0.9,1.9-0.3,1.1,1.6,4.4c5,8.6,23,18.5,45.2,25C802.7,968.6,803.9,968.1,812.8,970z" style="fill-rule: evenodd; clip-rule: evenodd; fill: rgb(187, 217, 142);" transform="matrix(0.9999999999999999, 0, 0, 0.9999999999999999, 0, -2.1316282072803006e-14)"/><path class="st2" d="M867.9,924l35.7,17.3c1.1,1.1,0.7,0.5-0.3,1.2c-1.2,0.8-3.8,0.8-3.5,3.5c0.3,2.6,4.2,4,7.3,6.9l-59.5,10.9&#10;&#9;&#9;&#9;&#9;l-1-2.3c-0.9-7.9-22.4-20-46.6-27.2c-3.6-1.1-9.2-2.4-12.1-3l-12-2.2l59.8-11c6.8,1.9,9.3,3.7,16.6,5&#10;&#9;&#9;&#9;&#9;C861.4,924.8,861.1,923.6,867.9,924z" style="fill-rule: evenodd; clip-rule: evenodd; fill: rgb(187, 217, 142);" transform="matrix(0.9999999999999999, 0, 0, 0.9999999999999999, 0, -2.1316282072803006e-14)"/><path class="st2" d="M776.7,940c5.6-0.6,11.7,0.1,18.2,2.9c16.9,7.4-6.8,8.4,7,13.1c5.1,1.7,13.5,1,5.6-3.4l6.7-1.1&#10;&#9;&#9;&#9;&#9;c7.2,3.8,8,6.1,2.3,7.7l5,2.6l-3.2,0.7l-5.3-2.6c-13.3,1.2-27.7-5.4-24.2-9.8c1.3-1.6,6.2-3,0.5-5.6c-3.3-1.5-6.8-2-8.9-1.1&#10;&#9;&#9;&#9;&#9;c-1.4,0.6-0.4,1.5,0.4,2.2l1.5,1.3l-5.9,1.1c-3.7-1.9-5.5-2.8-5.9-4.5c-0.3-1.2,0.2-2.1,2.7-2.8l-5.8-2.9l3.5-0.7L776.7,940z" style="fill-rule: evenodd; clip-rule: evenodd; fill: rgb(187, 217, 142);" transform="matrix(0.9999999999999999, 0, 0, 0.9999999999999999, 0, -2.1316282072803006e-14)"/><path class="st3" d="M724.8,954.5c16-1.1,36.2,11,19.9,12C729.6,967.4,709.4,955.5,724.8,954.5z" style="fill-rule: evenodd; clip-rule: evenodd; fill: rgb(84, 133, 90);" transform="matrix(0.9999999999999999, 0, 0, 0.9999999999999999, 0, -2.1316282072803006e-14)"/><path class="st3" d="M843.4,932.9c16.3-1.6,36.1,10.1,21.6,11.7C850.3,946.2,829.1,934.3,843.4,932.9z" style="fill-rule: evenodd; clip-rule: evenodd; fill: rgb(84, 133, 90);" transform="matrix(0.9999999999999999, 0, 0, 0.9999999999999999, 0, -2.1316282072803006e-14)"/><path class="st2" d="M891.3,962.4l101.8-54.3l-216-43.2c-12.5,6.7-90.1,47.7-101.5,54.5L891.3,962.4z" style="fill-rule: evenodd; clip-rule: evenodd; fill: rgb(187, 217, 142);" transform="matrix(0.9999999999999999, 0, 0, 0.9999999999999999, 0, -2.1316282072803006e-14)"/><path d="M 687.4000244140625 917.2000122070312 L 891.5999755859375 957.9000244140625 L 980.4000244140625 910.2999877929688 L 776.5 869.5999755859375 Z" class="st3" style="fill-rule: evenodd; clip-rule: evenodd; fill: rgb(84, 133, 90);" transform="matrix(0.9999999999999999, 0, 0, 0.9999999999999999, 0, -2.1316282072803006e-14)"/><path class="st2" d="M815,937.2l62.7,12.7c11.2-5.6,23.2-8.1,32.8-6.5l39.2-20.9c-8.5-2.2-7.3-7,2.9-12.5l-63.4-12.6&#10;&#9;&#9;&#9;&#9;c-0.9,2.2,0.3,1.3-1.6,5c-5.2,9.8-24.1,21.2-47.4,28.6C825.6,935.6,824.3,935,815,937.2z" style="fill-rule: evenodd; clip-rule: evenodd; fill: rgb(187, 217, 142);" transform="matrix(0.9999999999999999, 0, 0, 0.9999999999999999, 0, -2.1316282072803006e-14)"/><path class="st2" d="M757.3,884.4l-37.4,19.8c-1.2,1.2-0.8,0.5,0.3,1.4c1.3,1,4,0.9,3.6,4c-0.3,3-4.4,4.6-7.7,8l62.3,12.5l1-2.6&#10;&#9;&#9;&#9;&#9;c0.9-9,23.5-22.9,48.8-31.2c3.7-1.2,9.6-2.8,12.7-3.5l12.5-2.5l-62.7-12.6c-7.1,2.2-9.8,4.2-17.4,5.8&#10;&#9;&#9;&#9;&#9;C764.1,885.3,764.4,884,757.3,884.4z" style="fill-rule: evenodd; clip-rule: evenodd; fill: rgb(187, 217, 142);" transform="matrix(0.9999999999999999, 0, 0, 0.9999999999999999, 0, -2.1316282072803006e-14)"/><path class="st2" d="M852.9,902.8c-5.9-0.7-12.3,0.1-19,3.3c-17.7,8.5,7.1,9.6-7.4,15c-5.3,1.9-14.2,1.2-5.8-3.9l-7-1.3&#10;&#9;&#9;&#9;&#9;c-7.5,4.3-8.4,7-2.4,8.8l-5.2,2.9l3.4,0.8l5.6-3c13.9,1.4,29-6.2,25.4-11.2c-1.4-1.8-6.5-3.4-0.5-6.4c3.5-1.7,7.1-2.2,9.3-1.3&#10;&#9;&#9;&#9;&#9;c1.5,0.7,0.4,1.8-0.4,2.6l-1.6,1.5l6.1,1.2c3.9-2.2,5.7-3.2,6.2-5.1c0.3-1.3-0.2-2.4-2.8-3.2l6.1-3.3l-3.7-0.8L852.9,902.8z" style="fill-rule: evenodd; clip-rule: evenodd; fill: rgb(187, 217, 142);" transform="matrix(0.9999999999999999, 0, 0, 0.9999999999999999, 0, -2.1316282072803006e-14)"/><path class="st3" d="M907.2,919.3c-16.7-1.3-38,12.6-20.8,13.8C902.2,934.2,923.3,920.6,907.2,919.3z" style="fill-rule: evenodd; clip-rule: evenodd; fill: rgb(84, 133, 90);" transform="matrix(0.9999999999999999, 0, 0, 0.9999999999999999, 0, -2.1316282072803006e-14)"/><path class="st3" d="M783,894.6c-17.1-1.9-37.8,11.6-22.6,13.5C775.7,909.9,798,896.2,783,894.6z" style="fill-rule: evenodd; clip-rule: evenodd; fill: rgb(84, 133, 90);" transform="matrix(0.9999999999999999, 0, 0, 0.9999999999999999, 0, -2.1316282072803006e-14)"/><path class="st2" d="M395.1,1015.6l98.1-52.4L285,921.6c-12.1,6.5-86.8,45.9-97.9,52.5L395.1,1015.6z" style="fill-rule: evenodd; clip-rule: evenodd; fill: rgb(187, 217, 142);" transform="matrix(0.9999999999999999, 0, 0, 0.9999999999999999, 0, -2.1316282072803006e-14)"/><path d="M 198.60000610351562 972 L 395.3999938964844 1011.2000122070312 L 481 965.4000244140625 L 284.3999938964844 926.0999755859375 Z" class="st3" style="fill-rule: evenodd; clip-rule: evenodd; fill: rgb(84, 133, 90);" transform="matrix(0.9999999999999999, 0, 0, 0.9999999999999999, 0, -2.1316282072803006e-14)"/><path class="st2" d="M321.5,991.3l60.4,12.2c10.8-5.4,22.4-7.8,31.6-6.3l37.8-20.2c-8.2-2.1-7-6.7,2.8-12.1L393,952.8&#10;&#9;&#9;&#9;&#9;c-0.9,2.1,0.3,1.3-1.6,4.8c-5,9.5-23.2,20.4-45.7,27.6C331.7,989.7,330.6,989.1,321.5,991.3z" style="fill-rule: evenodd; clip-rule: evenodd; fill: rgb(187, 217, 142);" transform="matrix(0.9999999999999999, 0, 0, 0.9999999999999999, 0, -2.1316282072803006e-14)"/><path class="st2" d="M266,940.4l-36,19.1c-1.1,1.2-0.7,0.5,0.3,1.3c1.2,0.9,3.8,0.9,3.5,3.9c-0.3,2.8-4.2,4.4-7.4,7.7l60.1,12.1&#10;&#9;&#9;&#9;&#9;l1-2.6c0.9-8.7,22.6-22,47-30c3.6-1.2,9.3-2.7,12.2-3.3l12.1-2.5l-60.4-12.1c-6.8,2.1-9.4,4.1-16.7,5.6&#10;&#9;&#9;&#9;&#9;C272.5,941.3,272.8,940,266,940.4z" style="fill-rule: evenodd; clip-rule: evenodd; fill: rgb(187, 217, 142);" transform="matrix(0.9999999999999999, 0, 0, 0.9999999999999999, 0, -2.1316282072803006e-14)"/><path class="st2" d="M358,958.1c-5.7-0.7-11.8,0.1-18.3,3.2c-17,8.2,6.9,9.3-7.1,14.4c-5.1,1.9-13.7,1.1-5.6-3.7l-6.8-1.2&#10;&#9;&#9;&#9;&#9;c-7.2,4.2-8.1,6.8-2.3,8.5l-5,2.8l3.3,0.8l5.4-2.9c13.4,1.3,28-6,24.4-10.8c-1.3-1.8-6.3-3.3-0.5-6.2c3.3-1.7,6.8-2.2,8.9-1.2&#10;&#9;&#9;&#9;&#9;c1.5,0.6,0.4,1.7-0.4,2.5l-1.5,1.5l5.9,1.2c3.8-2.1,5.5-3.1,6-5c0.3-1.3-0.2-2.3-2.7-3.1l5.8-3.2L364,955L358,958.1z" style="fill-rule: evenodd; clip-rule: evenodd; fill: rgb(187, 217, 142);" transform="matrix(0.9999999999999999, 0, 0, 0.9999999999999999, 0, -2.1316282072803006e-14)"/><path class="st3" d="M410.4,974.1c-16.1-1.2-36.6,12.1-20.1,13.3C405.6,988.4,426,975.3,410.4,974.1z" style="fill-rule: evenodd; clip-rule: evenodd; fill: rgb(84, 133, 90);" transform="matrix(0.9999999999999999, 0, 0, 0.9999999999999999, 0, -2.1316282072803006e-14)"/><path class="st3" d="M290.7,950.3c-16.5-1.8-36.4,11.2-21.8,13C283.7,965,305.1,951.8,290.7,950.3z" style="fill-rule: evenodd; clip-rule: evenodd; fill: rgb(84, 133, 90);" transform="matrix(0.9999999999999999, 0, 0, 0.9999999999999999, 0, -2.1316282072803006e-14)"/><path class="st2" d="M297.4,941l-98.1-52.4L407.5,847c12.1,6.5,86.8,45.9,97.9,52.5L297.4,941z" style="fill-rule: evenodd; clip-rule: evenodd; fill: rgb(187, 217, 142);" transform="matrix(0.9999999999999999, 0, 0, 0.9999999999999999, 0, -2.1316282072803006e-14)"/><path d="M 493.8999938964844 897.4000244140625 L 297.1000061035156 936.5999755859375 L 211.5 890.9000244140625 L 408.1000061035156 851.5999755859375 Z" class="st3" style="fill-rule: evenodd; clip-rule: evenodd; fill: rgb(84, 133, 90);" transform="matrix(0.9999999999999999, 0, 0, 0.9999999999999999, 0, -2.1316282072803006e-14)"/><path class="st2" d="M371,916.7l-60.4,12.2c-10.8-5.4-22.4-7.8-31.6-6.3l-37.8-20.2c8.2-2.1,7-6.7-2.8-12.1l61.1-12.2&#10;&#9;&#9;&#9;&#9;c0.9,2.1-0.3,1.3,1.6,4.8c5,9.5,23.2,20.4,45.7,27.6C360.8,915.2,361.9,914.6,371,916.7z" style="fill-rule: evenodd; clip-rule: evenodd; fill: rgb(187, 217, 142);" transform="matrix(0.9999999999999999, 0, 0, 0.9999999999999999, 0, -2.1316282072803006e-14)"/><path class="st2" d="M426.5,865.8l36,19.1c1.1,1.2,0.7,0.5-0.3,1.3c-1.2,0.9-3.8,0.9-3.5,3.9c0.3,2.8,4.2,4.4,7.4,7.7l-60.1,12.1&#10;&#9;&#9;&#9;&#9;l-1-2.5c-0.9-8.7-22.6-22-47-30c-3.6-1.2-9.3-2.7-12.2-3.3l-12.1-2.5l60.4-12.1c6.8,2.1,9.4,4.1,16.7,5.6&#10;&#9;&#9;&#9;&#9;C420,866.7,419.7,865.4,426.5,865.8z" style="fill-rule: evenodd; clip-rule: evenodd; fill: rgb(187, 217, 142);" transform="matrix(0.9999999999999999, 0, 0, 0.9999999999999999, 0, -2.1316282072803006e-14)"/><path class="st2" d="M334.5,883.6c5.7-0.7,11.8,0.1,18.3,3.2c17,8.2-6.9,9.3,7.1,14.4c5.1,1.9,13.7,1.1,5.6-3.7l6.8-1.2&#10;&#9;&#9;&#9;&#9;c7.2,4.2,8.1,6.8,2.3,8.5l5,2.8l-3.3,0.8l-5.4-2.9c-13.4,1.3-28-6-24.4-10.8c1.3-1.8,6.3-3.3,0.5-6.2c-3.3-1.7-6.8-2.2-8.9-1.2&#10;&#9;&#9;&#9;&#9;c-1.5,0.6-0.4,1.7,0.4,2.5l1.5,1.5l-5.9,1.2c-3.8-2.1-5.5-3.1-6-5c-0.3-1.3,0.2-2.3,2.7-3.1l-5.8-3.2l3.6-0.7L334.5,883.6z" style="fill-rule: evenodd; clip-rule: evenodd; fill: rgb(187, 217, 142);" transform="matrix(0.9999999999999999, 0, 0, 0.9999999999999999, 0, -2.1316282072803006e-14)"/><path class="st3" d="M282.1,899.5c16.1-1.2,36.6,12.1,20.1,13.3C286.9,913.9,266.5,900.7,282.1,899.5z" style="fill-rule: evenodd; clip-rule: evenodd; fill: rgb(84, 133, 90);" transform="matrix(0.9999999999999999, 0, 0, 0.9999999999999999, 0, -2.1316282072803006e-14)"/><path class="st3" d="M401.8,875.7c16.5-1.8,36.4,11.2,21.8,13C408.8,890.5,387.4,877.3,401.8,875.7z" style="fill-rule: evenodd; clip-rule: evenodd; fill: rgb(84, 133, 90);" transform="matrix(0.9999999999999999, 0, 0, 0.9999999999999999, 0, -2.1316282072803006e-14)"/><path class="st2" d="M541.9,1009.3L443.8,957L652,915.4c12.1,6.5,86.8,45.9,97.9,52.5L541.9,1009.3z" style="fill-rule: evenodd; clip-rule: evenodd; fill: rgb(187, 217, 142);" transform="matrix(0.9999999999999999, 0, 0, 0.9999999999999999, 0, -2.1316282072803006e-14)"/><path d="M 738.4000244140625 965.7000122070312 L 541.5999755859375 1005 L 456 959.2000122070312 L 652.5999755859375 919.9000244140625 Z" class="st3" style="fill-rule: evenodd; clip-rule: evenodd; fill: rgb(84, 133, 90);" transform="matrix(0.9999999999999999, 0, 0, 0.9999999999999999, 0, -2.1316282072803006e-14)"/><path class="st2" d="M615.5,985l-60.4,12.2c-10.8-5.4-22.4-7.8-31.6-6.3l-37.8-20.2c8.2-2.1,7-6.7-2.8-12.1l61.1-12.2&#10;&#9;&#9;&#9;&#9;c0.9,2.1-0.3,1.3,1.6,4.8c5,9.5,23.2,20.4,45.7,27.6C605.3,983.5,606.4,982.9,615.5,985z" style="fill-rule: evenodd; clip-rule: evenodd; fill: rgb(187, 217, 142);" transform="matrix(0.9999999999999999, 0, 0, 0.9999999999999999, 0, -2.1316282072803006e-14)"/><path class="st2" d="M671,934.1l36,19.1c1.1,1.2,0.7,0.5-0.3,1.3c-1.2,0.9-3.8,0.9-3.5,3.9c0.3,2.8,4.2,4.4,7.4,7.7l-60.1,12.1&#10;&#9;&#9;&#9;&#9;l-1-2.5c-0.9-8.7-22.6-22-47-30c-3.6-1.2-9.3-2.7-12.2-3.3l-12.1-2.5l60.4-12.1c6.8,2.1,9.4,4.1,16.7,5.6&#10;&#9;&#9;&#9;&#9;C664.5,935,664.2,933.8,671,934.1z" style="fill-rule: evenodd; clip-rule: evenodd; fill: rgb(187, 217, 142);" transform="matrix(0.9999999999999999, 0, 0, 0.9999999999999999, 0, -2.1316282072803006e-14)"/><path class="st2" d="M579,951.9c5.7-0.7,11.8,0.1,18.3,3.2c17,8.2-6.9,9.3,7.1,14.4c5.1,1.9,13.7,1.1,5.6-3.7l6.8-1.2&#10;&#9;&#9;&#9;&#9;c7.2,4.2,8,6.8,2.3,8.5l5,2.8l-3.3,0.8l-5.4-2.9c-13.4,1.3-28-6-24.4-10.8c1.3-1.8,6.3-3.3,0.5-6.2c-3.3-1.7-6.8-2.2-8.9-1.2&#10;&#9;&#9;&#9;&#9;c-1.5,0.6-0.4,1.7,0.4,2.5l1.5,1.4l-5.9,1.2c-3.8-2.1-5.5-3.1-6-5c-0.3-1.3,0.2-2.3,2.7-3.1l-5.8-3.2l3.6-0.7L579,951.9z" style="fill-rule: evenodd; clip-rule: evenodd; fill: rgb(187, 217, 142);" transform="matrix(0.9999999999999999, 0, 0, 0.9999999999999999, 0, -2.1316282072803006e-14)"/><path class="st3" d="M526.6,967.9c16.1-1.2,36.6,12.1,20.1,13.3C531.4,982.2,511,969,526.6,967.9z" style="fill-rule: evenodd; clip-rule: evenodd; fill: rgb(84, 133, 90);" transform="matrix(0.9999999999999999, 0, 0, 0.9999999999999999, 0, -2.1316282072803006e-14)"/><path class="st3" d="M646.3,944c16.5-1.8,36.4,11.2,21.8,13C653.3,958.8,631.9,945.6,646.3,944z" style="fill-rule: evenodd; clip-rule: evenodd; fill: rgb(84, 133, 90);" transform="matrix(0.9999999999999999, 0, 0, 0.9999999999999999, 0, -2.1316282072803006e-14)"/><path class="st2" d="M421.9,968.7l-98.1-52.4L532,874.7c12.1,6.5,86.8,45.9,97.9,52.5L421.9,968.7z" style="fill-rule: evenodd; clip-rule: evenodd; fill: rgb(187, 217, 142);" transform="matrix(0.9999999999999999, 0, 0, 0.9999999999999999, 0, -2.1316282072803006e-14)"/><path d="M 618.4000244140625 925.0999755859375 L 421.6000061035156 964.4000244140625 L 336 918.5999755859375 L 532.5999755859375 879.2999877929688 Z" class="st3" style="fill-rule: evenodd; clip-rule: evenodd; fill: rgb(84, 133, 90);" transform="matrix(0.9999999999999999, 0, 0, 0.9999999999999999, 0, -2.1316282072803006e-14)"/><path class="st2" d="M495.5,944.4l-60.4,12.2c-10.8-5.4-22.4-7.8-31.6-6.3l-37.8-20.2c8.2-2.1,7-6.7-2.8-12.1L424,906&#10;&#9;&#9;&#9;&#9;c0.9,2.1-0.3,1.3,1.6,4.8c5,9.5,23.2,20.4,45.7,27.6C485.3,942.9,486.4,942.3,495.5,944.4z" style="fill-rule: evenodd; clip-rule: evenodd; fill: rgb(187, 217, 142);" transform="matrix(0.9999999999999999, 0, 0, 0.9999999999999999, 0, -2.1316282072803006e-14)"/><path class="st2" d="M551,893.5l36,19.1c1.1,1.2,0.7,0.5-0.3,1.3c-1.2,0.9-3.8,0.9-3.5,3.9c0.3,2.8,4.2,4.4,7.4,7.7l-60.1,12.1&#10;&#9;&#9;&#9;&#9;l-1-2.5c-0.9-8.7-22.6-22-47-30c-3.6-1.2-9.3-2.7-12.2-3.3l-12.1-2.5l60.4-12.1c6.8,2.1,9.4,4.1,16.7,5.6&#10;&#9;&#9;&#9;&#9;C544.5,894.4,544.2,893.2,551,893.5z" style="fill-rule: evenodd; clip-rule: evenodd; fill: rgb(187, 217, 142);" transform="matrix(0.9999999999999999, 0, 0, 0.9999999999999999, 0, -2.1316282072803006e-14)"/><path class="st2" d="M459,911.3c5.7-0.7,11.8,0.1,18.3,3.2c17,8.2-6.9,9.3,7.1,14.4c5.1,1.9,13.7,1.1,5.6-3.7l6.8-1.2&#10;&#9;&#9;&#9;&#9;c7.2,4.2,8,6.8,2.3,8.5l5,2.8l-3.3,0.8l-5.4-2.9c-13.4,1.3-28-6-24.4-10.8c1.3-1.8,6.3-3.3,0.5-6.2c-3.3-1.7-6.8-2.2-8.9-1.2&#10;&#9;&#9;&#9;&#9;c-1.5,0.6-0.4,1.7,0.4,2.5l1.5,1.4l-5.9,1.2c-3.8-2.1-5.5-3.1-6-5c-0.3-1.3,0.2-2.3,2.7-3.1l-5.8-3.2l3.6-0.7L459,911.3z" style="fill-rule: evenodd; clip-rule: evenodd; fill: rgb(187, 217, 142);" transform="matrix(0.9999999999999999, 0, 0, 0.9999999999999999, 0, -2.1316282072803006e-14)"/><path class="st3" d="M406.6,927.2c16.1-1.2,36.6,12.1,20.1,13.3C411.4,941.6,391,928.4,406.6,927.2z" style="fill-rule: evenodd; clip-rule: evenodd; fill: rgb(84, 133, 90);" transform="matrix(0.9999999999999999, 0, 0, 0.9999999999999999, 0, -2.1316282072803006e-14)"/><path class="st3" d="M526.3,903.4c16.5-1.8,36.4,11.2,21.8,13C533.3,918.2,511.9,905,526.3,903.4z" style="fill-rule: evenodd; clip-rule: evenodd; fill: rgb(84, 133, 90);" transform="matrix(0.9999999999999999, 0, 0, 0.9999999999999999, 0, -2.1316282072803006e-14)"/><g transform="matrix(0.9999999999999999, 0, 0, 0.9999999999999999, 0, -2.1316282072803006e-14)">
				<path class="st4" d="M437.4,299.1h519.5c18.4,0,33.5,15.1,33.5,33.5v519.5c0,18.4-15.1,33.5-33.5,33.5H437.4&#10;&#9;&#9;&#9;&#9;&#9;c-18.4,0-33.5-15.1-33.5-33.5V332.6C403.9,314.2,419,299.1,437.4,299.1z" style="fill-rule: evenodd; clip-rule: evenodd; fill: rgb(160, 172, 182);"/>
				<path class="st5" d="M467.1,332.6h460.2c16.3,0,29.7,13.4,29.7,29.7v460.2c0,16.3-13.4,29.7-29.7,29.7H467.1&#10;&#9;&#9;&#9;&#9;&#9;c-16.3,0-29.7-13.4-29.7-29.7V362.3C437.4,346,450.8,332.6,467.1,332.6z" style="fill-rule: evenodd; clip-rule: evenodd; fill: rgb(218, 221, 224);"/>
				<path class="st6" d="M493.4,362.3H901c14.5,0,26.3,11.8,26.3,26.3v407.6c0,14.5-11.8,26.3-26.3,26.3H493.4&#10;&#9;&#9;&#9;&#9;&#9;c-14.5,0-26.3-11.8-26.3-26.3V388.6C467.1,374.1,478.9,362.3,493.4,362.3z" style="fill-rule: evenodd; clip-rule: evenodd; fill: rgb(211, 213, 215);"/>
				<path class="st7" d="M525.3,695.5c20.4-5.2,13.9-26.8,12.2-66.5c-1.1-27.4-2.4-55.2-3.1-82.7l2.4-2.2c2-1.7,1.8-1.3,3.5-2.9&#10;&#9;&#9;&#9;&#9;&#9;c3.6-3.3,2.6-0.5,4.9-7c6.6-18.6-9.7-18.3-12.4-31.2c-2-9.4,0.4-10.5-8.5-13.9c-6.5-2.2-12.9,0.6-15.4,6.8&#10;&#9;&#9;&#9;&#9;&#9;c-5.6,13.9,4.5,6.3-8.7,16.7c-9.5,7.4-13.1,18.9,0.3,29.4l5.1,4.2c-0.3,18.7-7.9,135-5.4,139.7&#10;&#9;&#9;&#9;&#9;&#9;C504.8,690.8,516.8,701.9,525.3,695.5z" style="fill-rule: evenodd; clip-rule: evenodd; fill: rgb(120, 131, 141);"/>
			</g><path class="st4" d="M709.7,434.7c45.9,0,87.4,18.6,117.4,48.6c30.1,30.1,48.6,71.6,48.6,117.4c0,45.9-18.6,87.4-48.6,117.4&#10;&#9;&#9;&#9;&#9;c-30.1,30.1-71.6,48.6-117.4,48.6c-45.9,0-87.4-18.6-117.4-48.6c-30.1-30.1-48.6-71.6-48.6-117.4c0-45.9,18.6-87.4,48.6-117.4&#10;&#9;&#9;&#9;&#9;C622.4,453.3,663.9,434.7,709.7,434.7L709.7,434.7z M776,534.5c-17-17-40.4-27.4-66.3-27.4c-25.9,0-49.3,10.5-66.3,27.4&#10;&#9;&#9;&#9;&#9;c-17,17-27.4,40.4-27.4,66.3c0,25.9,10.5,49.3,27.4,66.3c17,17,40.4,27.4,66.3,27.4c25.9,0,49.3-10.5,66.3-27.4&#10;&#9;&#9;&#9;&#9;c17-17,27.4-40.4,27.4-66.3C803.4,574.9,792.9,551.5,776,534.5z" style="fill-rule: evenodd; clip-rule: evenodd; fill: rgb(160, 172, 182);" transform="matrix(0.9999999999999999, 0, 0, 0.9999999999999999, 0, -2.1316282072803006e-14)"/><path class="st8" d="M709.7,730.7c71.5,0,129.9-58.3,129.9-129.9c0-71.5-58.3-129.9-129.9-129.9c-71.5,0-129.9,58.3-129.9,129.9&#10;&#9;&#9;&#9;&#9;C579.9,672.3,638.2,730.7,709.7,730.7z" style="fill-rule: evenodd; clip-rule: evenodd; fill: rgb(245, 244, 244);" transform="matrix(0.9999999999999999, 0, 0, 0.9999999999999999, 0, -2.1316282072803006e-14)"/><path class="st9" d="M705.2,526.2c-4,1.4-2.3,6.3-2.8,10.3c-0.6,4.3-3.4,4.9-7.3,6c-2.4,0.7-8.5,2.6-10.7,2.5&#10;&#9;&#9;&#9;&#9;c-4.1-0.2-5.2-3.7-6.8-6.4c-2.3-3.7-3-5.1-7.9-2.4c-1.5,0.8-3.1,1.2-3.4,3.1c-0.9,4.7,7,9.2,3.4,14.6l-6.5,6.8&#10;&#9;&#9;&#9;&#9;c-1.6,1.6-4.5,5.2-8.4,4.6c-4.8-0.7-9.1-8.4-13-1.4c-3.6,6.4-2.3,5.6,5.5,10.6c3.3,2.1,3.3,4.8,2.1,9.3c-3.4,13-2.4,13.6-13,13.6&#10;&#9;&#9;&#9;&#9;c-2.1,0-3.8,0-4.7,1.8c-0.7,1.4-0.8,4.7-0.4,6.4c0.9,4.1,5.7,3.2,9.9,3.3c4.5,0.1,5.3,2.9,6.4,6.8c0.6,2.4,2.6,8.7,2.6,10.8&#10;&#9;&#9;&#9;&#9;c0.1,6.8-8.8,6.8-10,9.9c-0.8,2.2,1.3,7.3,4.3,8.3c5.1,1.6,8.9-6.7,14.4-3.2c1.7,1.1,5.1,4.9,6.8,6.5c1.7,1.7,5.3,4.1,4.9,8.1&#10;&#9;&#9;&#9;&#9;c-0.4,4.1-8,9.5-2.1,13.1c6.7,4.1,7.8,1,11.2-5.1c2.2-4.1,4.4-3.5,9.1-2.3c2.6,0.7,8.3,1.9,10.4,2.9c7.6,3.5-1.9,18.3,11.3,15.3&#10;&#9;&#9;&#9;&#9;c4.4-1,3.4-5.3,3.5-9.6c0.1-4.6,2.6-5.6,6.7-6.6c12.4-3.1,13-5.4,17.8,3c1.8,3.1,3.1,6,7.8,3.5c3.2-1.7,5-4.2,2.6-8.1&#10;&#9;&#9;&#9;&#9;c-0.8-1.4-1.6-2.6-2.4-4.1c-2.7-4.9,2.6-8.2,6.5-12.1c1.7-1.7,4.3-5.4,7.7-5.2c4.2,0.3,9.6,7.8,13.5,2.5c5.4-7.5-1.2-9-4.9-11.3&#10;&#9;&#9;&#9;&#9;c-3.8-2.4-3.4-4.5-2.1-9.4c0.7-2.7,1.9-8.1,2.9-10.4c3.2-7.3,17.8,2.4,15.2-11.2c-0.9-4.6-5.2-3.6-9.4-3.6&#10;&#9;&#9;&#9;&#9;c-4.6-0.1-5.6-2.4-6.7-6.5c-3-11.8-5.6-13.1,3-17.9c3.1-1.7,5.8-3.8,3.4-7.9c-2.3-3.9-3.5-5.1-8.2-2.4c-8.8,5.1-9,3.2-16.6-4.6&#10;&#9;&#9;&#9;&#9;c-1.5-1.6-5.3-4.5-4.5-8.3c1-4.5,8.1-9.3,1.3-13.1c-1.3-0.7-3.1-2.2-5.1-1.7c-2.4,0.7-4,5.6-5.7,7.7c-2.8,3.3-5.2,2.7-9.7,1.5&#10;&#9;&#9;&#9;&#9;c-2.6-0.7-8.3-1.9-10.3-3c-5.5-2.9,0.4-13-5-14.8C709.9,525.8,706.6,525.7,705.2,526.2z" style="fill-rule: evenodd; clip-rule: evenodd; fill: rgb(219, 220, 220);" transform="matrix(0.9999999999999999, 0, 0, 0.9999999999999999, 0, -2.1316282072803006e-14)"/><path class="st10" d="M708,642c21.5,0,39-17.5,39-39c0-21.5-17.5-39-39-39c-21.5,0-39,17.5-39,39C669.1,624.5,686.6,642,708,642z&#10;&#9;&#9;&#9;&#9;" style="fill-rule: evenodd; clip-rule: evenodd; fill: rgb(158, 158, 159);" transform="matrix(0.9999999999999999, 0, 0, 0.9999999999999999, 0, -2.1316282072803006e-14)"/><path class="st11" d="M272.5,899.6v-24.5h175.7v25.8C448.3,900.9,271.7,899.6,272.5,899.6z" style="fill-rule: evenodd; clip-rule: evenodd; fill: rgb(247, 184, 74);" transform="matrix(0.9999999999999999, 0, 0, 0.9999999999999999, 0, -2.1316282072803006e-14)"/><path class="st11" d="M447.2,897.3c-2.5-6-12.9-13.5-35.1-18.3c-10.3-2.2-20.6-3.7-31.1-4.4c-21.3-1.3-42.1-1-61.8,2.3&#10;&#9;&#9;&#9;&#9;c-59.6,9.9-61.2,34-10.4,44.7C375.5,935.8,456,918.7,447.2,897.3z" style="fill-rule: evenodd; clip-rule: evenodd; fill: rgb(247, 184, 74);" transform="matrix(0.9999999999999999, 0, 0, 0.9999999999999999, 0, -2.1316282072803006e-14)"/><path class="st11" d="M412,855.4c-10.3-2.2-20.6-3.7-31.1-4.4c-21.3-1.3-42.1-1-61.8,2.3c-59.6,9.9-61.2,34-10.4,44.7&#10;&#9;&#9;&#9;&#9;&#9;c66.8,14.2,147.3-2.8,138.4-24.3C444.7,867.7,434.3,860.1,412,855.4z" style="fill-rule: evenodd; clip-rule: evenodd; fill: rgb(247, 184, 74);" transform="matrix(0.9999999999999999, 0, 0, 0.9999999999999999, 0, -2.1316282072803006e-14)"/><path class="st12" d="M413.1,858.4c-12.7-3.2-27.3-5.3-42.7-5.9l-14.4-0.2c-1.4,0-2,0.1-3.4,0.2c-1.9,0.1-1.5,0-3.3,0.1&#10;&#9;&#9;&#9;&#9;&#9;c-16.7,0.4-38.7,4.1-50,8.3c-7.6,2.8-12.9,5.4-16.2,8.6c-4.8,4.6-4.7,8.6-1.4,12.8c1.2,1.5,2.7,2.8,4.9,4.3&#10;&#9;&#9;&#9;&#9;&#9;c10.5,7.6,36.7,13.4,63.4,14.2c12,0.4,8.7,0.2,17.8,0c19.3-0.4,40.8-3.6,53.3-8.2c11.5-4.2,16.5-7.8,18.9-12.9&#10;&#9;&#9;&#9;&#9;&#9;c0.9-1.8,0.6-2.7,0.4-4.4c-0.1-1,0-1.1-0.4-2C436.8,867.6,429,862.4,413.1,858.4z" style="fill-rule: evenodd; clip-rule: evenodd; fill: rgb(251, 206, 83);" transform="matrix(0.9999999999999999, 0, 0, 0.9999999999999999, 0, -2.1316282072803006e-14)"/><path class="st13" d="M382.8,868.3c-4,0.4-2.1-0.2-7.6-0.7c-2.8-0.2-4.8-0.3-7.2-0.2c-4.3,0.2-10.8,0.8-14.7,2.2&#10;&#9;&#9;&#9;&#9;&#9;c-1.9,0.7-3.1,1.4-3.8,2.2c-1.1,1.1-0.6,1.1-0.5,2.2c0.2,1.8,3.4,2.7,6.8,4.4c2.7,1.3,5.8,3.1,5.6,4.3c-0.3,2-7.4,3.2-12.1,2.9&#10;&#9;&#9;&#9;&#9;&#9;c-5.7-0.3-10.4-1.6-13.1-3.3c-3-1.9-0.2-2.9,5.3-4.6l-8.2-2.6c-5.3,1.7-9,3-9.3,5c-0.4,2.5,1.4,2.4,5.1,4.9l-7.7,2.4l8.3,2.4&#10;&#9;&#9;&#9;&#9;&#9;l7.8-2.4c18,3.7,35.4-0.7,35.9-4.4c0-0.3-0.1-0.6-0.1-1c0-0.7,0.2-0.5-0.3-1.2c-1.7-2.2-9-4.5-11.6-6.5&#10;&#9;&#9;&#9;&#9;&#9;c-4.9-3.7,12.2-5.9,20-1.6c3.8,2.1,1.4,2.8-0.6,4.1c-0.1,0-0.2,0.1-0.2,0.2c-0.1,0-0.2,0.1-0.2,0.2l8,2.3c3.9-1.4,6.5-2.8,7-4.4&#10;&#9;&#9;&#9;&#9;&#9;c0.6-2-1.2-2.2-4.7-4.3l8.2-2.6l-8.3-2.5L382.8,868.3z" style="fill-rule: evenodd; clip-rule: evenodd; fill: rgb(230, 163, 52);" transform="matrix(0.9999999999999999, 0, 0, 0.9999999999999999, 0, -2.1316282072803006e-14)"/><path class="st11" d="M381.7,867.1c-4,0.4-2.1-0.2-7.6-0.6c-2.8-0.2-4.8-0.3-7.2-0.2c-4.3,0.2-10.8,0.8-14.7,2.2&#10;&#9;&#9;&#9;&#9;&#9;c-1.9,0.7-3.1,1.4-3.8,2.2c-1.1,1.1-0.6,1.1-0.5,2.2c0.2,1.8,3.4,2.7,6.8,4.4c2.7,1.3,5.8,3.1,5.6,4.3c-0.3,2-7.4,3.2-12.1,2.9&#10;&#9;&#9;&#9;&#9;&#9;c-5.7-0.3-10.4-1.6-13.1-3.3c-3-1.9-0.2-2.8,5.3-4.6l-8.2-2.6c-5.3,1.7-9,3-9.3,5c-0.4,2.5,1.4,2.4,5.1,4.9l-7.7,2.4l8.3,2.4&#10;&#9;&#9;&#9;&#9;&#9;l7.8-2.4c18,3.7,35.4-0.7,35.9-4.4c0-0.3-0.1-0.6-0.1-1c0-0.7,0.2-0.5-0.3-1.2c-1.7-2.2-9-4.5-11.6-6.5&#10;&#9;&#9;&#9;&#9;&#9;c-4.9-3.7,12.2-5.8,20-1.6c3.8,2.1,1.4,2.8-0.6,4.1c-0.1,0-0.2,0.1-0.2,0.2c-0.1,0-0.2,0.1-0.2,0.2l8,2.3c3.9-1.4,6.5-2.8,7-4.4&#10;&#9;&#9;&#9;&#9;&#9;c0.6-2-1.2-2.2-4.7-4.3l8.2-2.6l-8.3-2.5L381.7,867.1z" style="fill-rule: evenodd; clip-rule: evenodd; fill: rgb(247, 184, 74);" transform="matrix(0.9999999999999999, 0, 0, 0.9999999999999999, 0, -2.1316282072803006e-14)"/><path class="st14" d="M286.9,882.3c12.6,18.4,134.8,21.9,144.8-0.2C431.4,904,305.6,908,286.9,882.3z" style="fill-rule: evenodd; clip-rule: evenodd; fill: rgb(250, 196, 47);" transform="matrix(0.9999999999999999, 0, 0, 0.9999999999999999, 0, -2.1316282072803006e-14)"/><path class="st15" d="M410,860c16,4.7,22.7,11.2,20.4,17.6c-2.9-3.8-9.2-7.3-19-10.2c-28.2-8.2-74.3-7.6-103.1,1.4&#10;&#9;&#9;&#9;&#9;&#9;c-12.4,3.9-19.6,8.7-21.4,13.6c-5.4-7.1,1.3-15.1,20-21C335.7,852.3,381.8,851.7,410,860z" style="fill-rule: evenodd; clip-rule: evenodd; fill: rgb(252, 222, 148);" transform="matrix(0.9999999999999999, 0, 0, 0.9999999999999999, 0, -2.1316282072803006e-14)"/><path class="st11" d="M278.3,860.2v-24.5h175.7v25.8C454.1,861.5,277.5,860.2,278.3,860.2z" style="fill-rule: evenodd; clip-rule: evenodd; fill: rgb(247, 184, 74);" transform="matrix(0.9999999999999999, 0, 0, 0.9999999999999999, 0, -2.1316282072803006e-14)"/><path class="st11" d="M453,857.8c-2.5-6-12.9-13.5-35.1-18.3c-10.3-2.2-20.6-3.7-31.1-4.4c-21.3-1.3-42.1-1-61.8,2.3&#10;&#9;&#9;&#9;&#9;c-59.6,9.9-61.2,34-10.4,44.7C381.3,896.3,461.8,879.3,453,857.8z" style="fill-rule: evenodd; clip-rule: evenodd; fill: rgb(247, 184, 74);" transform="matrix(0.9999999999999999, 0, 0, 0.9999999999999999, 0, -2.1316282072803006e-14)"/><path class="st11" d="M417.8,815.9c-10.3-2.2-20.6-3.7-31.1-4.4c-21.3-1.3-42.1-1-61.8,2.3c-59.6,9.9-61.2,34-10.4,44.7&#10;&#9;&#9;&#9;&#9;&#9;c66.8,14.2,147.3-2.8,138.4-24.3C450.5,828.3,440.1,820.7,417.8,815.9z" style="fill-rule: evenodd; clip-rule: evenodd; fill: rgb(247, 184, 74);" transform="matrix(0.9999999999999999, 0, 0, 0.9999999999999999, 0, -2.1316282072803006e-14)"/><path class="st12" d="M418.9,819c-12.7-3.2-27.3-5.3-42.7-5.9l-14.4-0.2c-1.4,0-2,0.1-3.4,0.2c-1.9,0.1-1.5,0-3.3,0.1&#10;&#9;&#9;&#9;&#9;&#9;c-16.7,0.4-38.7,4.1-50,8.3c-7.6,2.8-12.9,5.4-16.2,8.6c-4.8,4.6-4.7,8.6-1.4,12.8c1.2,1.5,2.7,2.8,4.9,4.3&#10;&#9;&#9;&#9;&#9;&#9;c10.5,7.6,36.7,13.4,63.4,14.2c12,0.4,8.7,0.2,17.8,0c19.3-0.4,40.8-3.6,53.3-8.2c11.5-4.2,16.5-7.8,18.9-12.9&#10;&#9;&#9;&#9;&#9;&#9;c0.9-1.8,0.6-2.7,0.4-4.4c-0.1-1,0-1.1-0.4-2C442.6,828.2,434.8,823,418.9,819z" style="fill-rule: evenodd; clip-rule: evenodd; fill: rgb(251, 206, 83);" transform="matrix(0.9999999999999999, 0, 0, 0.9999999999999999, 0, -2.1316282072803006e-14)"/><path class="st13" d="M388.6,828.8c-4,0.4-2.1-0.2-7.6-0.7c-2.8-0.2-4.8-0.3-7.2-0.2c-4.3,0.2-10.8,0.8-14.7,2.2&#10;&#9;&#9;&#9;&#9;&#9;c-1.9,0.7-3.1,1.4-3.8,2.2c-1.1,1.1-0.6,1.1-0.5,2.2c0.2,1.8,3.4,2.7,6.8,4.4c2.7,1.3,5.8,3.1,5.6,4.3c-0.3,2-7.4,3.2-12.1,2.9&#10;&#9;&#9;&#9;&#9;&#9;c-5.7-0.3-10.4-1.6-13.1-3.3c-3-1.9-0.2-2.9,5.3-4.6l-8.2-2.6c-5.3,1.7-9,3-9.3,5c-0.4,2.5,1.4,2.4,5.1,4.9l-7.7,2.4l8.3,2.4&#10;&#9;&#9;&#9;&#9;&#9;l7.8-2.4c18,3.7,35.4-0.7,35.9-4.4c0-0.3-0.1-0.6-0.1-1c0-0.7,0.2-0.5-0.3-1.2c-1.7-2.2-9-4.5-11.6-6.5&#10;&#9;&#9;&#9;&#9;&#9;c-4.9-3.7,12.2-5.9,20-1.6c3.8,2.1,1.4,2.8-0.6,4.1c-0.1,0-0.2,0.1-0.2,0.2c-0.1,0-0.2,0.1-0.2,0.2l8,2.3c3.9-1.4,6.5-2.8,7-4.4&#10;&#9;&#9;&#9;&#9;&#9;c0.6-2-1.2-2.2-4.7-4.3l8.2-2.6l-8.3-2.5L388.6,828.8z" style="fill-rule: evenodd; clip-rule: evenodd; fill: rgb(230, 163, 52);" transform="matrix(0.9999999999999999, 0, 0, 0.9999999999999999, 0, -2.1316282072803006e-14)"/><path class="st11" d="M387.5,827.7c-4,0.4-2.1-0.2-7.6-0.6c-2.8-0.2-4.8-0.3-7.2-0.2c-4.3,0.2-10.8,0.8-14.7,2.2&#10;&#9;&#9;&#9;&#9;&#9;c-1.9,0.7-3.1,1.4-3.8,2.2c-1.1,1.1-0.6,1.1-0.5,2.2c0.2,1.8,3.4,2.7,6.8,4.4c2.7,1.3,5.8,3.1,5.6,4.3c-0.3,2-7.4,3.2-12.1,2.9&#10;&#9;&#9;&#9;&#9;&#9;c-5.7-0.3-10.4-1.6-13.1-3.3c-3-1.9-0.2-2.8,5.3-4.6l-8.2-2.6c-5.3,1.7-9,3-9.3,5c-0.4,2.5,1.4,2.4,5.1,4.9l-7.7,2.4l8.3,2.4&#10;&#9;&#9;&#9;&#9;&#9;l7.8-2.4c18,3.7,35.4-0.7,35.9-4.4c0-0.3-0.1-0.6-0.1-1c0-0.7,0.2-0.5-0.3-1.2c-1.7-2.2-9-4.5-11.6-6.5&#10;&#9;&#9;&#9;&#9;&#9;c-4.9-3.7,12.2-5.8,20-1.6c3.8,2.1,1.4,2.8-0.6,4.1c-0.1,0-0.2,0.1-0.2,0.2c-0.1,0-0.2,0.1-0.2,0.2l8,2.3c3.9-1.4,6.5-2.8,7-4.4&#10;&#9;&#9;&#9;&#9;&#9;c0.6-2-1.2-2.2-4.7-4.3l8.2-2.6l-8.3-2.5L387.5,827.7z" style="fill-rule: evenodd; clip-rule: evenodd; fill: rgb(247, 184, 74);" transform="matrix(0.9999999999999999, 0, 0, 0.9999999999999999, 0, -2.1316282072803006e-14)"/><path class="st14" d="M292.7,842.9c12.6,18.4,134.8,21.9,144.8-0.2C437.2,864.6,311.4,868.6,292.7,842.9z" style="fill-rule: evenodd; clip-rule: evenodd; fill: rgb(250, 196, 47);" transform="matrix(0.9999999999999999, 0, 0, 0.9999999999999999, 0, -2.1316282072803006e-14)"/><path class="st15" d="M415.8,820.5c16,4.7,22.7,11.2,20.4,17.6c-2.9-3.8-9.2-7.3-19-10.2c-28.2-8.2-74.3-7.6-103.1,1.4&#10;&#9;&#9;&#9;&#9;&#9;c-12.4,3.9-19.6,8.7-21.4,13.6c-5.4-7.1,1.3-15.1,20-21C341.5,812.9,387.6,812.3,415.8,820.5z" style="fill-rule: evenodd; clip-rule: evenodd; fill: rgb(252, 222, 148);" transform="matrix(0.9999999999999999, 0, 0, 0.9999999999999999, 0, -2.1316282072803006e-14)"/><path class="st11" d="M272.5,823.5v-24.5h175.7v25.8C448.3,824.8,271.7,823.5,272.5,823.5z" style="fill-rule: evenodd; clip-rule: evenodd; fill: rgb(247, 184, 74);" transform="matrix(0.9999999999999999, 0, 0, 0.9999999999999999, 0, -2.1316282072803006e-14)"/><path class="st11" d="M447.2,821.2c-2.5-6-12.9-13.5-35.1-18.3c-10.3-2.2-20.6-3.7-31.1-4.4c-21.3-1.3-42.1-1-61.8,2.3&#10;&#9;&#9;&#9;&#9;c-59.6,9.9-61.2,34-10.4,44.7C375.5,859.7,456,842.7,447.2,821.2z" style="fill-rule: evenodd; clip-rule: evenodd; fill: rgb(247, 184, 74);" transform="matrix(0.9999999999999999, 0, 0, 0.9999999999999999, 0, -2.1316282072803006e-14)"/><path class="st11" d="M412,779.3c-10.3-2.2-20.6-3.8-31.1-4.4c-21.3-1.3-42.1-1-61.8,2.3c-59.6,9.9-61.2,34-10.4,44.7&#10;&#9;&#9;&#9;&#9;&#9;c66.8,14.2,147.3-2.8,138.4-24.3C444.7,791.6,434.3,784,412,779.3z" style="fill-rule: evenodd; clip-rule: evenodd; fill: rgb(247, 184, 74);" transform="matrix(0.9999999999999999, 0, 0, 0.9999999999999999, 0, -2.1316282072803006e-14)"/><path class="st12" d="M413.1,782.3c-12.7-3.2-27.3-5.3-42.7-5.9l-14.4-0.2c-1.4,0-2,0.1-3.4,0.2c-1.9,0.1-1.5,0-3.3,0.1&#10;&#9;&#9;&#9;&#9;&#9;c-16.7,0.4-38.7,4.1-50,8.3c-7.6,2.8-12.9,5.4-16.2,8.6c-4.8,4.6-4.7,8.6-1.4,12.8c1.2,1.5,2.7,2.8,4.9,4.3&#10;&#9;&#9;&#9;&#9;&#9;c10.5,7.6,36.7,13.4,63.4,14.2c12,0.4,8.7,0.2,17.8,0c19.3-0.4,40.8-3.6,53.3-8.2c11.5-4.2,16.5-7.8,18.9-12.9&#10;&#9;&#9;&#9;&#9;&#9;c0.9-1.8,0.6-2.7,0.4-4.4c-0.1-1,0-1.1-0.4-2C436.8,791.6,429,786.3,413.1,782.3z" style="fill-rule: evenodd; clip-rule: evenodd; fill: rgb(251, 206, 83);" transform="matrix(0.9999999999999999, 0, 0, 0.9999999999999999, 0, -2.1316282072803006e-14)"/><path class="st13" d="M382.8,792.2c-4,0.4-2.1-0.2-7.6-0.7c-2.8-0.2-4.8-0.3-7.2-0.2c-4.3,0.2-10.8,0.8-14.7,2.2&#10;&#9;&#9;&#9;&#9;&#9;c-1.9,0.7-3.1,1.4-3.8,2.2c-1.1,1.1-0.6,1.1-0.5,2.2c0.2,1.8,3.4,2.7,6.8,4.4c2.7,1.3,5.8,3.1,5.6,4.3c-0.3,2-7.4,3.2-12.1,2.9&#10;&#9;&#9;&#9;&#9;&#9;c-5.7-0.3-10.4-1.6-13.1-3.3c-3-1.9-0.2-2.9,5.3-4.6l-8.2-2.6c-5.3,1.7-9,3-9.3,5c-0.4,2.5,1.4,2.4,5.1,4.9l-7.7,2.4l8.3,2.4&#10;&#9;&#9;&#9;&#9;&#9;l7.8-2.4c18,3.7,35.4-0.7,35.9-4.4c0-0.3-0.1-0.6-0.1-1c0-0.7,0.2-0.5-0.3-1.2c-1.7-2.2-9-4.5-11.6-6.5&#10;&#9;&#9;&#9;&#9;&#9;c-4.9-3.7,12.2-5.9,20-1.6c3.8,2.1,1.4,2.8-0.6,4.1c-0.1,0-0.2,0.1-0.2,0.2c-0.1,0-0.2,0.1-0.2,0.2l8,2.3c3.9-1.4,6.5-2.8,7-4.4&#10;&#9;&#9;&#9;&#9;&#9;c0.6-2-1.2-2.2-4.7-4.3l8.2-2.6l-8.3-2.5L382.8,792.2z" style="fill-rule: evenodd; clip-rule: evenodd; fill: rgb(230, 163, 52);" transform="matrix(0.9999999999999999, 0, 0, 0.9999999999999999, 0, -2.1316282072803006e-14)"/><path class="st11" d="M381.7,791.1c-4,0.4-2.1-0.2-7.6-0.6c-2.8-0.2-4.8-0.3-7.2-0.2c-4.3,0.2-10.8,0.8-14.7,2.2&#10;&#9;&#9;&#9;&#9;&#9;c-1.9,0.7-3.1,1.4-3.8,2.2c-1.1,1.1-0.6,1.1-0.5,2.2c0.2,1.8,3.4,2.7,6.8,4.4c2.7,1.3,5.8,3.1,5.6,4.3c-0.3,2-7.4,3.2-12.1,2.9&#10;&#9;&#9;&#9;&#9;&#9;c-5.7-0.3-10.4-1.6-13.1-3.3c-3-1.9-0.2-2.8,5.3-4.6l-8.2-2.6c-5.3,1.7-9,3-9.3,5c-0.4,2.5,1.4,2.4,5.1,4.9l-7.7,2.4l8.3,2.4&#10;&#9;&#9;&#9;&#9;&#9;l7.8-2.4c18,3.7,35.4-0.7,35.9-4.4c0-0.3-0.1-0.6-0.1-1c0-0.7,0.2-0.5-0.3-1.2c-1.7-2.2-9-4.5-11.6-6.5&#10;&#9;&#9;&#9;&#9;&#9;c-4.9-3.7,12.2-5.8,20-1.6c3.8,2.1,1.4,2.8-0.6,4.1c-0.1,0-0.2,0.1-0.2,0.2c-0.1,0-0.2,0.1-0.2,0.2l8,2.3c3.9-1.4,6.5-2.8,7-4.4&#10;&#9;&#9;&#9;&#9;&#9;c0.6-2-1.2-2.2-4.7-4.3l8.2-2.6l-8.3-2.5L381.7,791.1z" style="fill-rule: evenodd; clip-rule: evenodd; fill: rgb(247, 184, 74);" transform="matrix(0.9999999999999999, 0, 0, 0.9999999999999999, 0, -2.1316282072803006e-14)"/><path class="st14" d="M286.9,806.2c12.6,18.4,134.8,21.9,144.8-0.2C431.4,828,305.6,831.9,286.9,806.2z" style="fill-rule: evenodd; clip-rule: evenodd; fill: rgb(250, 196, 47);" transform="matrix(0.9999999999999999, 0, 0, 0.9999999999999999, 0, -2.1316282072803006e-14)"/><path class="st15" d="M410,783.9c16,4.7,22.7,11.2,20.4,17.6c-2.9-3.8-9.2-7.3-19-10.2c-28.2-8.2-74.3-7.6-103.1,1.4&#10;&#9;&#9;&#9;&#9;&#9;c-12.4,3.9-19.6,8.7-21.4,13.6c-5.4-7.1,1.3-15.1,20-21C335.7,776.3,381.8,775.6,410,783.9z" style="fill-rule: evenodd; clip-rule: evenodd; fill: rgb(252, 222, 148);" transform="matrix(0.9999999999999999, 0, 0, 0.9999999999999999, 0, -2.1316282072803006e-14)"/><path class="st11" d="M278.3,784.1v-24.5h175.7v25.8C454.1,785.4,277.5,784.1,278.3,784.1z" style="fill-rule: evenodd; clip-rule: evenodd; fill: rgb(247, 184, 74);" transform="matrix(0.9999999999999999, 0, 0, 0.9999999999999999, 0, -2.1316282072803006e-14)"/><path class="st11" d="M453,781.7c-2.5-6-12.9-13.5-35.1-18.3c-10.3-2.2-20.6-3.7-31.1-4.4c-21.3-1.3-42.1-1-61.8,2.3&#10;&#9;&#9;&#9;&#9;c-59.6,9.9-61.2,34-10.4,44.7C381.3,820.2,461.8,803.2,453,781.7z" style="fill-rule: evenodd; clip-rule: evenodd; fill: rgb(247, 184, 74);" transform="matrix(0.9999999999999999, 0, 0, 0.9999999999999999, 0, -2.1316282072803006e-14)"/><path class="st11" d="M417.8,739.8c-10.3-2.2-20.6-3.8-31.1-4.4c-21.3-1.3-42.1-1-61.8,2.3c-59.6,9.9-61.2,34-10.4,44.7&#10;&#9;&#9;&#9;&#9;&#9;c66.8,14.2,147.3-2.8,138.4-24.3C450.5,752.2,440.1,744.6,417.8,739.8z" style="fill-rule: evenodd; clip-rule: evenodd; fill: rgb(247, 184, 74);" transform="matrix(0.9999999999999999, 0, 0, 0.9999999999999999, 0, -2.1316282072803006e-14)"/><path class="st12" d="M418.9,742.9c-12.7-3.2-27.3-5.3-42.7-5.9l-14.4-0.2c-1.4,0-2,0.1-3.4,0.2c-1.9,0.1-1.5,0-3.3,0.1&#10;&#9;&#9;&#9;&#9;&#9;c-16.7,0.4-38.7,4.1-50,8.3c-7.6,2.8-12.9,5.4-16.2,8.6c-4.8,4.6-4.7,8.6-1.4,12.8c1.2,1.5,2.7,2.8,4.9,4.3&#10;&#9;&#9;&#9;&#9;&#9;c10.5,7.6,36.7,13.4,63.4,14.2c12,0.4,8.7,0.2,17.8,0c19.3-0.4,40.8-3.6,53.3-8.2c11.5-4.2,16.5-7.8,18.9-12.9&#10;&#9;&#9;&#9;&#9;&#9;c0.9-1.8,0.6-2.7,0.4-4.4c-0.1-1,0-1.1-0.4-2C442.6,752.1,434.8,746.9,418.9,742.9z" style="fill-rule: evenodd; clip-rule: evenodd; fill: rgb(251, 206, 83);" transform="matrix(0.9999999999999999, 0, 0, 0.9999999999999999, 0, -2.1316282072803006e-14)"/><path class="st13" d="M388.6,752.7c-4,0.4-2.1-0.2-7.6-0.7c-2.8-0.2-4.8-0.3-7.2-0.2c-4.3,0.2-10.8,0.8-14.7,2.2&#10;&#9;&#9;&#9;&#9;&#9;c-1.9,0.7-3.1,1.4-3.8,2.2c-1.1,1.1-0.6,1.1-0.5,2.2c0.2,1.8,3.4,2.7,6.8,4.4c2.7,1.3,5.8,3.1,5.6,4.3c-0.3,2-7.4,3.2-12.1,2.9&#10;&#9;&#9;&#9;&#9;&#9;c-5.7-0.3-10.4-1.6-13.1-3.3c-3-1.9-0.2-2.9,5.3-4.6l-8.2-2.6c-5.3,1.7-9,3-9.3,5c-0.4,2.5,1.4,2.4,5.1,4.9l-7.7,2.4l8.3,2.4&#10;&#9;&#9;&#9;&#9;&#9;l7.8-2.4c18,3.7,35.4-0.7,35.9-4.4c0-0.3-0.1-0.6-0.1-1c0-0.7,0.2-0.5-0.3-1.2c-1.7-2.2-9-4.5-11.6-6.5&#10;&#9;&#9;&#9;&#9;&#9;c-4.9-3.7,12.2-5.9,20-1.6c3.8,2.1,1.4,2.8-0.6,4.1c-0.1,0-0.2,0.1-0.2,0.2c-0.1,0-0.2,0.1-0.2,0.2l8,2.3c3.9-1.4,6.5-2.8,7-4.4&#10;&#9;&#9;&#9;&#9;&#9;c0.6-2-1.2-2.2-4.7-4.3l8.2-2.6l-8.3-2.5L388.6,752.7z" style="fill-rule: evenodd; clip-rule: evenodd; fill: rgb(230, 163, 52);" transform="matrix(0.9999999999999999, 0, 0, 0.9999999999999999, 0, -2.1316282072803006e-14)"/><path class="st11" d="M387.5,751.6c-4,0.4-2.1-0.2-7.6-0.6c-2.8-0.2-4.8-0.3-7.2-0.2c-4.3,0.2-10.8,0.8-14.7,2.2&#10;&#9;&#9;&#9;&#9;&#9;c-1.9,0.7-3.1,1.4-3.8,2.2c-1.1,1.1-0.6,1.1-0.5,2.2c0.2,1.8,3.4,2.7,6.8,4.4c2.7,1.3,5.8,3.1,5.6,4.3c-0.3,2-7.4,3.2-12.1,2.9&#10;&#9;&#9;&#9;&#9;&#9;c-5.7-0.3-10.4-1.6-13.1-3.3c-3-1.9-0.2-2.8,5.3-4.6l-8.2-2.6c-5.3,1.7-9,3-9.3,5c-0.4,2.5,1.4,2.4,5.1,4.9l-7.7,2.4l8.3,2.4&#10;&#9;&#9;&#9;&#9;&#9;l7.8-2.4c18,3.7,35.4-0.7,35.9-4.4c0-0.3-0.1-0.6-0.1-1c0-0.7,0.2-0.5-0.3-1.2c-1.7-2.2-9-4.5-11.6-6.5&#10;&#9;&#9;&#9;&#9;&#9;c-4.9-3.7,12.2-5.8,20-1.6c3.8,2.1,1.4,2.8-0.6,4.1c-0.1,0-0.2,0.1-0.2,0.2c-0.1,0-0.2,0.1-0.2,0.2l8,2.3c3.9-1.4,6.5-2.8,7-4.4&#10;&#9;&#9;&#9;&#9;&#9;c0.6-2-1.2-2.2-4.7-4.3l8.2-2.6l-8.3-2.5L387.5,751.6z" style="fill-rule: evenodd; clip-rule: evenodd; fill: rgb(247, 184, 74);" transform="matrix(0.9999999999999999, 0, 0, 0.9999999999999999, 0, -2.1316282072803006e-14)"/><path class="st14" d="M292.7,766.8c12.6,18.4,134.8,21.9,144.8-0.2C437.2,788.5,311.4,792.5,292.7,766.8z" style="fill-rule: evenodd; clip-rule: evenodd; fill: rgb(250, 196, 47);" transform="matrix(0.9999999999999999, 0, 0, 0.9999999999999999, 0, -2.1316282072803006e-14)"/><path class="st15" d="M415.8,744.4c16,4.7,22.7,11.2,20.4,17.6c-2.9-3.8-9.2-7.3-19-10.2c-28.2-8.2-74.3-7.6-103.1,1.4&#10;&#9;&#9;&#9;&#9;&#9;c-12.4,3.9-19.6,8.7-21.4,13.6c-5.4-7.1,1.3-15.1,20-21C341.5,736.8,387.6,736.2,415.8,744.4z" style="fill-rule: evenodd; clip-rule: evenodd; fill: rgb(252, 222, 148);" transform="matrix(0.9999999999999999, 0, 0, 0.9999999999999999, 0, -2.1316282072803006e-14)"/><path class="st11" d="M272.5,740v-24.5h175.7v25.8C448.3,741.3,271.7,740,272.5,740z" style="fill-rule: evenodd; clip-rule: evenodd; fill: rgb(247, 184, 74);" transform="matrix(0.9999999999999999, 0, 0, 0.9999999999999999, 0, -2.1316282072803006e-14)"/><path class="st11" d="M447.2,737.6c-2.5-6-12.9-13.5-35.1-18.3c-10.3-2.2-20.6-3.7-31.1-4.4c-21.3-1.3-42.1-1-61.8,2.3&#10;&#9;&#9;&#9;&#9;c-59.6,9.9-61.2,34-10.4,44.7C375.5,776.1,456,759.1,447.2,737.6z" style="fill-rule: evenodd; clip-rule: evenodd; fill: rgb(247, 184, 74);" transform="matrix(0.9999999999999999, 0, 0, 0.9999999999999999, 0, -2.1316282072803006e-14)"/><path class="st11" d="M412,695.7c-10.3-2.2-20.6-3.7-31.1-4.4c-21.3-1.3-42.1-1-61.8,2.3c-59.6,9.9-61.2,34-10.4,44.7&#10;&#9;&#9;&#9;&#9;&#9;c66.8,14.2,147.3-2.8,138.4-24.3C444.7,708.1,434.3,700.5,412,695.7z" style="fill-rule: evenodd; clip-rule: evenodd; fill: rgb(247, 184, 74);" transform="matrix(0.9999999999999999, 0, 0, 0.9999999999999999, 0, -2.1316282072803006e-14)"/><path class="st12" d="M413.1,698.8c-12.7-3.2-27.3-5.3-42.7-5.9l-14.4-0.2c-1.4,0-2,0.1-3.4,0.2c-1.9,0.1-1.5,0-3.3,0.1&#10;&#9;&#9;&#9;&#9;&#9;c-16.7,0.4-38.7,4.1-50,8.3c-7.6,2.8-12.9,5.4-16.2,8.6c-4.8,4.6-4.7,8.6-1.4,12.8c1.2,1.5,2.7,2.8,4.9,4.3&#10;&#9;&#9;&#9;&#9;&#9;c10.5,7.6,36.7,13.4,63.4,14.2c12,0.4,8.7,0.2,17.8,0c19.3-0.4,40.8-3.6,53.3-8.2c11.5-4.2,16.5-7.8,18.9-12.9&#10;&#9;&#9;&#9;&#9;&#9;c0.9-1.8,0.6-2.7,0.4-4.4c-0.1-1,0-1.1-0.4-2C436.8,708,429,702.8,413.1,698.8z" style="fill-rule: evenodd; clip-rule: evenodd; fill: rgb(251, 206, 83);" transform="matrix(0.9999999999999999, 0, 0, 0.9999999999999999, 0, -2.1316282072803006e-14)"/><path class="st13" d="M382.8,708.6c-4,0.4-2.1-0.2-7.6-0.7c-2.8-0.2-4.8-0.3-7.2-0.2c-4.3,0.2-10.8,0.8-14.7,2.2&#10;&#9;&#9;&#9;&#9;&#9;c-1.9,0.7-3.1,1.4-3.8,2.2c-1.1,1.1-0.6,1.1-0.5,2.2c0.2,1.8,3.4,2.7,6.8,4.4c2.7,1.3,5.8,3.1,5.6,4.3c-0.3,2-7.4,3.2-12.1,2.9&#10;&#9;&#9;&#9;&#9;&#9;c-5.7-0.3-10.4-1.6-13.1-3.3c-3-1.9-0.2-2.9,5.3-4.6l-8.2-2.6c-5.3,1.7-9,3-9.3,5c-0.4,2.5,1.4,2.4,5.1,4.9l-7.7,2.4l8.3,2.4&#10;&#9;&#9;&#9;&#9;&#9;l7.8-2.4c18,3.7,35.4-0.7,35.9-4.4c0-0.3-0.1-0.6-0.1-1c0-0.7,0.2-0.5-0.3-1.2c-1.7-2.2-9-4.5-11.6-6.5&#10;&#9;&#9;&#9;&#9;&#9;c-4.9-3.7,12.2-5.9,20-1.6c3.8,2.1,1.4,2.8-0.6,4.1c-0.1,0-0.2,0.1-0.2,0.2c-0.1,0-0.2,0.1-0.2,0.2l8,2.3c3.9-1.4,6.5-2.8,7-4.4&#10;&#9;&#9;&#9;&#9;&#9;c0.6-2-1.2-2.2-4.7-4.3l8.2-2.6l-8.3-2.5L382.8,708.6z" style="fill-rule: evenodd; clip-rule: evenodd; fill: rgb(230, 163, 52);" transform="matrix(0.9999999999999999, 0, 0, 0.9999999999999999, 0, -2.1316282072803006e-14)"/><path class="st11" d="M381.7,707.5c-4,0.4-2.1-0.2-7.6-0.6c-2.8-0.2-4.8-0.3-7.2-0.2c-4.3,0.2-10.8,0.8-14.7,2.2&#10;&#9;&#9;&#9;&#9;&#9;c-1.9,0.7-3.1,1.4-3.8,2.2c-1.1,1.1-0.6,1.1-0.5,2.2c0.2,1.8,3.4,2.7,6.8,4.4c2.7,1.3,5.8,3.1,5.6,4.3c-0.3,2-7.4,3.2-12.1,2.9&#10;&#9;&#9;&#9;&#9;&#9;c-5.7-0.3-10.4-1.6-13.1-3.3c-3-1.9-0.2-2.8,5.3-4.6l-8.2-2.6c-5.3,1.7-9,3-9.3,5c-0.4,2.5,1.4,2.4,5.1,4.9l-7.7,2.4l8.3,2.4&#10;&#9;&#9;&#9;&#9;&#9;l7.8-2.4c18,3.7,35.4-0.7,35.9-4.4c0-0.3-0.1-0.6-0.1-1c0-0.7,0.2-0.5-0.3-1.2c-1.7-2.2-9-4.5-11.6-6.5&#10;&#9;&#9;&#9;&#9;&#9;c-4.9-3.7,12.2-5.8,20-1.6c3.8,2.1,1.4,2.8-0.6,4.1c-0.1,0-0.2,0.1-0.2,0.2c-0.1,0-0.2,0.1-0.2,0.2l8,2.3c3.9-1.4,6.5-2.8,7-4.4&#10;&#9;&#9;&#9;&#9;&#9;c0.6-2-1.2-2.2-4.7-4.3l8.2-2.6l-8.3-2.5L381.7,707.5z" style="fill-rule: evenodd; clip-rule: evenodd; fill: rgb(247, 184, 74);" transform="matrix(0.9999999999999999, 0, 0, 0.9999999999999999, 0, -2.1316282072803006e-14)"/><path class="st14" d="M286.9,722.7c12.6,18.4,134.8,21.9,144.8-0.2C431.4,744.4,305.6,748.4,286.9,722.7z" style="fill-rule: evenodd; clip-rule: evenodd; fill: rgb(250, 196, 47);" transform="matrix(0.9999999999999999, 0, 0, 0.9999999999999999, 0, -2.1316282072803006e-14)"/><path class="st15" d="M410,700.3c16,4.7,22.7,11.2,20.4,17.6c-2.9-3.8-9.2-7.3-19-10.2c-28.2-8.2-74.3-7.6-103.1,1.4&#10;&#9;&#9;&#9;&#9;&#9;c-12.4,3.9-19.6,8.7-21.4,13.6c-5.4-7.1,1.3-15.1,20-21C335.7,692.7,381.8,692.1,410,700.3z" style="fill-rule: evenodd; clip-rule: evenodd; fill: rgb(252, 222, 148);" transform="matrix(0.9999999999999999, 0, 0, 0.9999999999999999, 0, -2.1316282072803006e-14)"/><path class="st11" d="M278.3,700.5v-24.5h175.7v25.8C454.1,701.8,277.5,700.5,278.3,700.5z" style="fill-rule: evenodd; clip-rule: evenodd; fill: rgb(247, 184, 74);" transform="matrix(0.9999999999999999, 0, 0, 0.9999999999999999, 0, -2.1316282072803006e-14)"/><path class="st11" d="M453,698.2c-2.5-6-12.9-13.5-35.1-18.3c-10.3-2.2-20.6-3.7-31.1-4.4c-21.3-1.3-42.1-1-61.8,2.3&#10;&#9;&#9;&#9;&#9;c-59.6,9.9-61.2,34-10.4,44.7C381.3,736.7,461.8,719.7,453,698.2z" style="fill-rule: evenodd; clip-rule: evenodd; fill: rgb(247, 184, 74);" transform="matrix(0.9999999999999999, 0, 0, 0.9999999999999999, 0, -2.1316282072803006e-14)"/><path class="st11" d="M417.8,656.3c-10.3-2.2-20.6-3.8-31.1-4.4c-21.3-1.3-42.1-1-61.8,2.3c-59.6,9.9-61.2,34-10.4,44.7&#10;&#9;&#9;&#9;&#9;&#9;c66.8,14.2,147.3-2.8,138.4-24.3C450.5,668.6,440.1,661,417.8,656.3z" style="fill-rule: evenodd; clip-rule: evenodd; fill: rgb(247, 184, 74);" transform="matrix(0.9999999999999999, 0, 0, 0.9999999999999999, 0, -2.1316282072803006e-14)"/><path class="st12" d="M418.9,659.3c-12.7-3.2-27.3-5.3-42.7-5.9l-14.4-0.2c-1.4,0-2,0.1-3.4,0.2c-1.9,0.1-1.5,0-3.3,0.1&#10;&#9;&#9;&#9;&#9;&#9;c-16.7,0.4-38.7,4.1-50,8.3c-7.6,2.8-12.9,5.4-16.2,8.6c-4.8,4.6-4.7,8.6-1.4,12.8c1.2,1.5,2.7,2.8,4.9,4.3&#10;&#9;&#9;&#9;&#9;&#9;c10.5,7.6,36.7,13.4,63.4,14.2c12,0.4,8.7,0.2,17.8,0c19.3-0.4,40.8-3.6,53.3-8.2c11.5-4.2,16.5-7.8,18.9-12.9&#10;&#9;&#9;&#9;&#9;&#9;c0.9-1.8,0.6-2.7,0.4-4.4c-0.1-1,0-1.1-0.4-2C442.6,668.6,434.8,663.3,418.9,659.3z" style="fill-rule: evenodd; clip-rule: evenodd; fill: rgb(251, 206, 83);" transform="matrix(0.9999999999999999, 0, 0, 0.9999999999999999, 0, -2.1316282072803006e-14)"/><path class="st13" d="M388.6,669.2c-4,0.4-2.1-0.2-7.6-0.7c-2.8-0.2-4.8-0.3-7.2-0.2c-4.3,0.2-10.8,0.8-14.7,2.2&#10;&#9;&#9;&#9;&#9;&#9;c-1.9,0.7-3.1,1.4-3.8,2.2c-1.1,1.1-0.6,1.1-0.5,2.2c0.2,1.8,3.4,2.7,6.8,4.4c2.7,1.3,5.8,3.1,5.6,4.3c-0.3,2-7.4,3.2-12.1,2.9&#10;&#9;&#9;&#9;&#9;&#9;c-5.7-0.3-10.4-1.6-13.1-3.3c-3-1.9-0.2-2.9,5.3-4.6l-8.2-2.6c-5.3,1.7-9,3-9.3,5c-0.4,2.5,1.4,2.4,5.1,4.9l-7.7,2.4l8.3,2.4&#10;&#9;&#9;&#9;&#9;&#9;l7.8-2.4c18,3.7,35.4-0.7,35.9-4.4c0-0.3-0.1-0.6-0.1-1c0-0.7,0.2-0.5-0.3-1.2c-1.7-2.2-9-4.5-11.6-6.5&#10;&#9;&#9;&#9;&#9;&#9;c-4.9-3.7,12.2-5.9,20-1.6c3.8,2.1,1.4,2.8-0.6,4.1c-0.1,0-0.2,0.1-0.2,0.2c-0.1,0-0.2,0.1-0.2,0.2l8,2.3c3.9-1.4,6.5-2.8,7-4.4&#10;&#9;&#9;&#9;&#9;&#9;c0.6-2-1.2-2.2-4.7-4.3l8.2-2.6l-8.3-2.5L388.6,669.2z" style="fill-rule: evenodd; clip-rule: evenodd; fill: rgb(230, 163, 52);" transform="matrix(0.9999999999999999, 0, 0, 0.9999999999999999, 0, -2.1316282072803006e-14)"/><path class="st11" d="M387.5,668.1c-4,0.4-2.1-0.2-7.6-0.6c-2.8-0.2-4.8-0.3-7.2-0.2c-4.3,0.2-10.8,0.8-14.7,2.2&#10;&#9;&#9;&#9;&#9;&#9;c-1.9,0.7-3.1,1.4-3.8,2.2c-1.1,1.1-0.6,1.1-0.5,2.2c0.2,1.8,3.4,2.7,6.8,4.4c2.7,1.3,5.8,3.1,5.6,4.3c-0.3,2-7.4,3.2-12.1,2.9&#10;&#9;&#9;&#9;&#9;&#9;c-5.7-0.3-10.4-1.6-13.1-3.3c-3-1.9-0.2-2.8,5.3-4.6l-8.2-2.6c-5.3,1.7-9,3-9.3,5c-0.4,2.5,1.4,2.4,5.1,4.9l-7.7,2.4l8.3,2.4&#10;&#9;&#9;&#9;&#9;&#9;l7.8-2.4c18,3.7,35.4-0.7,35.9-4.4c0-0.3-0.1-0.6-0.1-1c0-0.7,0.2-0.5-0.3-1.2c-1.7-2.2-9-4.5-11.6-6.5&#10;&#9;&#9;&#9;&#9;&#9;c-4.9-3.7,12.2-5.8,20-1.6c3.8,2.1,1.4,2.8-0.6,4.1c-0.1,0-0.2,0.1-0.2,0.2c-0.1,0-0.2,0.1-0.2,0.2l8,2.3c3.9-1.4,6.5-2.8,7-4.4&#10;&#9;&#9;&#9;&#9;&#9;c0.6-2-1.2-2.2-4.7-4.3l8.2-2.6l-8.3-2.5L387.5,668.1z" style="fill-rule: evenodd; clip-rule: evenodd; fill: rgb(247, 184, 74);" transform="matrix(0.9999999999999999, 0, 0, 0.9999999999999999, 0, -2.1316282072803006e-14)"/><path class="st14" d="M292.7,683.2c12.6,18.4,134.8,21.9,144.8-0.2C437.2,705,311.4,709,292.7,683.2z" style="fill-rule: evenodd; clip-rule: evenodd; fill: rgb(250, 196, 47);" transform="matrix(0.9999999999999999, 0, 0, 0.9999999999999999, 0, -2.1316282072803006e-14)"/><path class="st15" d="M415.8,660.9c16,4.7,22.7,11.2,20.4,17.6c-2.9-3.8-9.2-7.3-19-10.2c-28.2-8.2-74.3-7.6-103.1,1.4&#10;&#9;&#9;&#9;&#9;&#9;c-12.4,3.9-19.6,8.7-21.4,13.6c-5.4-7.1,1.3-15.1,20-21C341.5,653.3,387.6,652.7,415.8,660.9z" style="fill-rule: evenodd; clip-rule: evenodd; fill: rgb(252, 222, 148);" transform="matrix(0.9999999999999999, 0, 0, 0.9999999999999999, 0, -2.1316282072803006e-14)"/><path class="st11" d="M150.7,938.2v-23h164.9v24.2C315.6,939.4,149.9,938.2,150.7,938.2z" style="fill-rule: evenodd; clip-rule: evenodd; fill: rgb(247, 184, 74);" transform="matrix(0.9999999999999999, 0, 0, 0.9999999999999999, 0, -2.1316282072803006e-14)"/><path class="st11" d="M314.6,936c-2.3-5.6-12.1-12.7-33-17.2c-9.7-2.1-19.4-3.5-29.2-4.1c-20-1.2-39.5-0.9-58,2.1&#10;&#9;&#9;&#9;&#9;c-55.9,9.3-57.4,31.9-9.8,42C247.3,972.1,322.9,956.1,314.6,936z" style="fill-rule: evenodd; clip-rule: evenodd; fill: rgb(247, 184, 74);" transform="matrix(0.9999999999999999, 0, 0, 0.9999999999999999, 0, -2.1316282072803006e-14)"/><path class="st11" d="M281.6,896.6c-9.7-2.1-19.4-3.5-29.2-4.1c-20-1.2-39.5-0.9-58,2.1c-55.9,9.3-57.4,31.9-9.8,42&#10;&#9;&#9;&#9;&#9;&#9;c62.7,13.3,138.2-2.6,129.9-22.8C312.2,908.2,302.5,901.1,281.6,896.6z" style="fill-rule: evenodd; clip-rule: evenodd; fill: rgb(247, 184, 74);" transform="matrix(0.9999999999999999, 0, 0, 0.9999999999999999, 0, -2.1316282072803006e-14)"/><path class="st12" d="M282.6,899.5c-11.9-3-25.6-5-40-5.5l-13.5-0.2c-1.3,0-1.9,0.1-3.2,0.2c-1.7,0.1-1.4,0-3.1,0.1&#10;&#9;&#9;&#9;&#9;&#9;c-15.7,0.3-36.3,3.8-46.9,7.7c-7.1,2.6-12.1,5.1-15.2,8.1c-4.5,4.3-4.4,8.1-1.3,12c1.1,1.4,2.6,2.6,4.6,4.1&#10;&#9;&#9;&#9;&#9;&#9;c9.9,7.1,34.4,12.5,59.5,13.4c11.2,0.4,8.1,0.2,16.7,0c18.1-0.4,38.3-3.4,50-7.7c10.8-3.9,15.5-7.3,17.7-12.1&#10;&#9;&#9;&#9;&#9;&#9;c0.8-1.7,0.6-2.5,0.3-4.1c-0.1-0.9,0-1.1-0.4-1.9C304.8,908.2,297.5,903.3,282.6,899.5z" style="fill-rule: evenodd; clip-rule: evenodd; fill: rgb(251, 206, 83);" transform="matrix(0.9999999999999999, 0, 0, 0.9999999999999999, 0, -2.1316282072803006e-14)"/><path class="st13" d="M254.1,908.7c-3.7,0.4-1.9-0.2-7.1-0.6c-2.6-0.2-4.5-0.3-6.7-0.2c-4,0.2-10.1,0.8-13.8,2.1&#10;&#9;&#9;&#9;&#9;&#9;c-1.8,0.6-2.9,1.3-3.6,2.1c-1,1-0.6,1.1-0.5,2c0.2,1.7,3.2,2.6,6.4,4.2c2.6,1.3,5.5,2.9,5.3,4.1c-0.3,1.9-7,3-11.4,2.7&#10;&#9;&#9;&#9;&#9;&#9;c-5.3-0.3-9.7-1.5-12.3-3.1c-2.8-1.8-0.2-2.7,5-4.3l-7.7-2.4c-5,1.6-8.4,2.8-8.8,4.7c-0.4,2.3,1.3,2.3,4.8,4.6l-7.2,2.3l7.8,2.3&#10;&#9;&#9;&#9;&#9;&#9;l7.3-2.3c16.9,3.4,33.2-0.6,33.7-4.1c0-0.3-0.1-0.6-0.1-0.9c0-0.7,0.2-0.5-0.2-1.1c-1.6-2-8.4-4.2-10.9-6.1&#10;&#9;&#9;&#9;&#9;&#9;c-4.6-3.5,11.5-5.5,18.7-1.5c3.6,2,1.3,2.7-0.5,3.9c-0.1,0-0.2,0.1-0.2,0.1c-0.1,0-0.2,0.1-0.2,0.2l7.5,2.2&#10;&#9;&#9;&#9;&#9;&#9;c3.6-1.3,6.1-2.7,6.5-4.1c0.6-1.9-1.1-2.1-4.4-4.1l7.7-2.5l-7.8-2.3L254.1,908.7z" style="fill-rule: evenodd; clip-rule: evenodd; fill: rgb(230, 163, 52);" transform="matrix(0.9999999999999999, 0, 0, 0.9999999999999999, 0, -2.1316282072803006e-14)"/><path class="st11" d="M253.1,907.7c-3.7,0.4-1.9-0.2-7.1-0.6c-2.6-0.2-4.5-0.3-6.7-0.2c-4,0.2-10.1,0.8-13.8,2.1&#10;&#9;&#9;&#9;&#9;&#9;c-1.8,0.6-2.9,1.3-3.6,2c-1,1-0.6,1.1-0.5,2c0.2,1.7,3.2,2.6,6.4,4.2c2.6,1.3,5.5,2.9,5.3,4.1c-0.3,1.9-7,3-11.3,2.7&#10;&#9;&#9;&#9;&#9;&#9;c-5.3-0.3-9.7-1.5-12.3-3.1c-2.8-1.8-0.2-2.7,5-4.3l-7.7-2.4c-5,1.6-8.4,2.8-8.8,4.7c-0.4,2.3,1.3,2.3,4.8,4.6l-7.2,2.3l7.8,2.3&#10;&#9;&#9;&#9;&#9;&#9;l7.3-2.3c16.9,3.4,33.2-0.6,33.7-4.1c0-0.3-0.1-0.6-0.1-0.9c0-0.7,0.2-0.5-0.2-1.1c-1.6-2-8.4-4.2-10.9-6.1&#10;&#9;&#9;&#9;&#9;&#9;c-4.6-3.5,11.5-5.5,18.7-1.5c3.6,2,1.3,2.7-0.5,3.9c-0.1,0-0.2,0.1-0.2,0.2c-0.1,0-0.2,0.1-0.2,0.2l7.5,2.2&#10;&#9;&#9;&#9;&#9;&#9;c3.6-1.3,6.1-2.7,6.5-4.1c0.5-1.9-1.1-2.1-4.5-4.1l7.7-2.5l-7.8-2.3L253.1,907.7z" style="fill-rule: evenodd; clip-rule: evenodd; fill: rgb(247, 184, 74);" transform="matrix(0.9999999999999999, 0, 0, 0.9999999999999999, 0, -2.1316282072803006e-14)"/><path class="st14" d="M164.1,921.9c11.9,17.3,126.5,20.6,135.9-0.2C299.8,942.3,181.7,946.1,164.1,921.9z" style="fill-rule: evenodd; clip-rule: evenodd; fill: rgb(250, 196, 47);" transform="matrix(0.9999999999999999, 0, 0, 0.9999999999999999, 0, -2.1316282072803006e-14)"/><path class="st15" d="M279.7,901c15,4.4,21.3,10.5,19.1,16.5c-2.7-3.6-8.6-6.9-17.8-9.6c-26.4-7.7-69.7-7.1-96.7,1.3&#10;&#9;&#9;&#9;&#9;&#9;c-11.7,3.6-18.4,8.2-20.1,12.8c-5.1-6.7,1.2-14.2,18.8-19.7C209.9,893.8,253.2,893.2,279.7,901z" style="fill-rule: evenodd; clip-rule: evenodd; fill: rgb(252, 222, 148);" transform="matrix(0.9999999999999999, 0, 0, 0.9999999999999999, 0, -2.1316282072803006e-14)"/><path class="st11" d="M172.9,899.8v-23h164.9V901C337.8,901,172.1,899.8,172.9,899.8z" style="fill-rule: evenodd; clip-rule: evenodd; fill: rgb(247, 184, 74);" transform="matrix(0.9999999999999999, 0, 0, 0.9999999999999999, 0, -2.1316282072803006e-14)"/><path class="st11" d="M336.7,897.6c-2.3-5.6-12.1-12.7-33-17.2c-9.7-2.1-19.4-3.5-29.2-4.1c-20-1.2-39.5-0.9-58,2.1&#10;&#9;&#9;&#9;&#9;c-55.9,9.3-57.4,31.9-9.8,42C269.5,933.7,345.1,917.8,336.7,897.6z" style="fill-rule: evenodd; clip-rule: evenodd; fill: rgb(247, 184, 74);" transform="matrix(0.9999999999999999, 0, 0, 0.9999999999999999, 0, -2.1316282072803006e-14)"/><path class="st11" d="M303.8,858.3c-9.7-2.1-19.4-3.5-29.2-4.1c-20-1.2-39.5-0.9-58,2.1c-55.9,9.3-57.4,31.9-9.8,42&#10;&#9;&#9;&#9;&#9;&#9;c62.7,13.3,138.2-2.6,129.9-22.8C334.4,869.9,324.7,862.8,303.8,858.3z" style="fill-rule: evenodd; clip-rule: evenodd; fill: rgb(247, 184, 74);" transform="matrix(0.9999999999999999, 0, 0, 0.9999999999999999, 0, -2.1316282072803006e-14)"/><path class="st12" d="M304.8,861.2c-11.9-3-25.6-5-40-5.5l-13.5-0.2c-1.3,0-1.9,0.1-3.2,0.2c-1.7,0.1-1.4,0-3.1,0.1&#10;&#9;&#9;&#9;&#9;&#9;c-15.7,0.3-36.3,3.8-46.9,7.7c-7.1,2.6-12.1,5.1-15.2,8.1c-4.5,4.3-4.4,8.1-1.3,12c1.1,1.4,2.6,2.6,4.6,4.1&#10;&#9;&#9;&#9;&#9;&#9;c9.9,7.1,34.4,12.5,59.5,13.4c11.2,0.4,8.1,0.2,16.7,0c18.1-0.4,38.3-3.4,50-7.7c10.8-3.9,15.5-7.3,17.7-12.1&#10;&#9;&#9;&#9;&#9;&#9;c0.8-1.7,0.6-2.5,0.3-4.1c-0.1-0.9,0-1.1-0.4-1.9C327,869.8,319.7,864.9,304.8,861.2z" style="fill-rule: evenodd; clip-rule: evenodd; fill: rgb(251, 206, 83);" transform="matrix(0.9999999999999999, 0, 0, 0.9999999999999999, 0, -2.1316282072803006e-14)"/><path class="st13" d="M276.3,870.4c-3.7,0.4-1.9-0.2-7.1-0.6c-2.6-0.2-4.5-0.3-6.7-0.2c-4,0.2-10.1,0.8-13.8,2.1&#10;&#9;&#9;&#9;&#9;&#9;c-1.8,0.6-2.9,1.3-3.6,2.1c-1,1-0.6,1.1-0.5,2c0.2,1.7,3.2,2.6,6.4,4.2c2.6,1.3,5.5,2.9,5.3,4.1c-0.3,1.9-7,3-11.4,2.7&#10;&#9;&#9;&#9;&#9;&#9;c-5.3-0.3-9.7-1.5-12.3-3.1c-2.8-1.8-0.2-2.7,5-4.3l-7.7-2.4c-5,1.6-8.4,2.8-8.8,4.7c-0.4,2.3,1.3,2.3,4.8,4.6l-7.2,2.3l7.8,2.3&#10;&#9;&#9;&#9;&#9;&#9;l7.3-2.3c16.9,3.4,33.2-0.6,33.7-4.1c0-0.3-0.1-0.6-0.1-0.9c0-0.7,0.2-0.5-0.2-1.1c-1.6-2-8.4-4.2-10.9-6.1&#10;&#9;&#9;&#9;&#9;&#9;c-4.6-3.5,11.5-5.5,18.7-1.5c3.6,2,1.3,2.7-0.5,3.9c-0.1,0-0.2,0.1-0.2,0.1c-0.1,0-0.2,0.1-0.2,0.2l7.5,2.2&#10;&#9;&#9;&#9;&#9;&#9;c3.6-1.3,6.1-2.7,6.5-4.1c0.6-1.9-1.1-2.1-4.4-4.1l7.7-2.5l-7.8-2.3L276.3,870.4z" style="fill-rule: evenodd; clip-rule: evenodd; fill: rgb(230, 163, 52);" transform="matrix(0.9999999999999999, 0, 0, 0.9999999999999999, 0, -2.1316282072803006e-14)"/><path class="st11" d="M275.3,869.4c-3.7,0.4-1.9-0.2-7.1-0.6c-2.6-0.2-4.5-0.3-6.7-0.2c-4,0.2-10.1,0.8-13.8,2.1&#10;&#9;&#9;&#9;&#9;&#9;c-1.8,0.6-2.9,1.3-3.6,2c-1,1-0.6,1.1-0.5,2c0.2,1.7,3.2,2.6,6.4,4.2c2.6,1.3,5.5,2.9,5.3,4.1c-0.3,1.9-7,3-11.3,2.7&#10;&#9;&#9;&#9;&#9;&#9;c-5.3-0.3-9.7-1.5-12.3-3.1c-2.8-1.8-0.2-2.7,5-4.3l-7.7-2.4c-5,1.6-8.4,2.8-8.8,4.7c-0.4,2.3,1.3,2.3,4.8,4.6l-7.2,2.3l7.8,2.3&#10;&#9;&#9;&#9;&#9;&#9;l7.3-2.3c16.9,3.4,33.2-0.6,33.7-4.1c0-0.3-0.1-0.6-0.1-0.9c0-0.7,0.2-0.5-0.2-1.1c-1.6-2-8.4-4.2-10.9-6.1&#10;&#9;&#9;&#9;&#9;&#9;c-4.6-3.5,11.5-5.5,18.7-1.5c3.6,2,1.3,2.7-0.5,3.9c-0.1,0-0.2,0.1-0.2,0.2c-0.1,0-0.2,0.1-0.2,0.2l7.5,2.2&#10;&#9;&#9;&#9;&#9;&#9;c3.6-1.3,6.1-2.7,6.5-4.1c0.5-1.9-1.1-2.1-4.5-4.1l7.7-2.5l-7.8-2.3L275.3,869.4z" style="fill-rule: evenodd; clip-rule: evenodd; fill: rgb(247, 184, 74);" transform="matrix(0.9999999999999999, 0, 0, 0.9999999999999999, 0, -2.1316282072803006e-14)"/><path class="st14" d="M186.3,883.6c11.9,17.3,126.5,20.6,135.9-0.2C322,904,203.9,907.7,186.3,883.6z" style="fill-rule: evenodd; clip-rule: evenodd; fill: rgb(250, 196, 47);" transform="matrix(0.9999999999999999, 0, 0, 0.9999999999999999, 0, -2.1316282072803006e-14)"/><path class="st15" d="M301.8,862.6c15,4.4,21.3,10.5,19.1,16.5c-2.7-3.6-8.6-6.9-17.8-9.6c-26.4-7.7-69.7-7.1-96.7,1.3&#10;&#9;&#9;&#9;&#9;&#9;c-11.7,3.6-18.4,8.2-20.1,12.8c-5.1-6.7,1.2-14.2,18.8-19.7C232.1,855.5,275.4,854.9,301.8,862.6z" style="fill-rule: evenodd; clip-rule: evenodd; fill: rgb(252, 222, 148);" transform="matrix(0.9999999999999999, 0, 0, 0.9999999999999999, 0, -2.1316282072803006e-14)"/><path class="st11" d="M160.1,859.5v-23H325v24.2C325,860.7,159.3,859.5,160.1,859.5z" style="fill-rule: evenodd; clip-rule: evenodd; fill: rgb(247, 184, 74);" transform="matrix(0.9999999999999999, 0, 0, 0.9999999999999999, 0, -2.1316282072803006e-14)"/><path class="st11" d="M324,857.3c-2.3-5.6-12.1-12.7-33-17.2c-9.7-2.1-19.4-3.5-29.2-4.1c-20-1.2-39.5-0.9-58,2.1&#10;&#9;&#9;&#9;&#9;c-55.9,9.3-57.4,31.9-9.8,42C256.7,893.4,332.3,877.4,324,857.3z" style="fill-rule: evenodd; clip-rule: evenodd; fill: rgb(247, 184, 74);" transform="matrix(0.9999999999999999, 0, 0, 0.9999999999999999, 0, -2.1316282072803006e-14)"/><path class="st11" d="M291,817.9c-9.7-2.1-19.4-3.5-29.2-4.1c-20-1.2-39.5-0.9-58,2.1c-55.9,9.3-57.4,31.9-9.8,42&#10;&#9;&#9;&#9;&#9;&#9;c62.7,13.3,138.2-2.6,129.9-22.8C321.7,829.5,311.9,822.4,291,817.9z" style="fill-rule: evenodd; clip-rule: evenodd; fill: rgb(247, 184, 74);" transform="matrix(0.9999999999999999, 0, 0, 0.9999999999999999, 0, -2.1316282072803006e-14)"/><path class="st12" d="M292,820.8c-11.9-3-25.6-5-40-5.5l-13.5-0.2c-1.3,0-1.9,0.1-3.2,0.2c-1.7,0.1-1.4,0-3.1,0.1&#10;&#9;&#9;&#9;&#9;&#9;c-15.7,0.3-36.3,3.8-46.9,7.7c-7.1,2.6-12.1,5.1-15.2,8.1c-4.5,4.3-4.4,8.1-1.3,12c1.1,1.4,2.6,2.6,4.6,4.1&#10;&#9;&#9;&#9;&#9;&#9;c9.9,7.1,34.4,12.5,59.5,13.4c11.2,0.4,8.1,0.2,16.7,0c18.1-0.4,38.3-3.4,50-7.7c10.8-3.9,15.5-7.3,17.7-12.1&#10;&#9;&#9;&#9;&#9;&#9;c0.8-1.7,0.6-2.5,0.3-4.1c-0.1-0.9,0-1.1-0.4-1.9C314.3,829.5,306.9,824.6,292,820.8z" style="fill-rule: evenodd; clip-rule: evenodd; fill: rgb(251, 206, 83);" transform="matrix(0.9999999999999999, 0, 0, 0.9999999999999999, 0, -2.1316282072803006e-14)"/><path class="st13" d="M263.6,830.1c-3.7,0.4-1.9-0.2-7.1-0.6c-2.6-0.2-4.5-0.3-6.7-0.2c-4,0.2-10.1,0.8-13.8,2.1&#10;&#9;&#9;&#9;&#9;&#9;c-1.8,0.6-2.9,1.3-3.6,2.1c-1,1-0.6,1.1-0.5,2c0.2,1.7,3.2,2.6,6.4,4.2c2.6,1.3,5.5,2.9,5.3,4.1c-0.3,1.9-7,3-11.4,2.7&#10;&#9;&#9;&#9;&#9;&#9;c-5.3-0.3-9.7-1.5-12.3-3.1c-2.8-1.8-0.2-2.7,5-4.3l-7.7-2.4c-5,1.6-8.4,2.8-8.8,4.7c-0.4,2.3,1.3,2.3,4.8,4.6l-7.2,2.3l7.8,2.3&#10;&#9;&#9;&#9;&#9;&#9;l7.3-2.3c16.9,3.4,33.2-0.6,33.7-4.1c0-0.3-0.1-0.6-0.1-0.9c0-0.7,0.2-0.5-0.2-1.1c-1.6-2-8.4-4.2-10.9-6.1&#10;&#9;&#9;&#9;&#9;&#9;c-4.6-3.5,11.5-5.5,18.7-1.5c3.6,2,1.3,2.7-0.5,3.9c-0.1,0-0.2,0.1-0.2,0.1c-0.1,0-0.2,0.1-0.2,0.2l7.5,2.2&#10;&#9;&#9;&#9;&#9;&#9;c3.6-1.3,6.1-2.7,6.5-4.1c0.6-1.9-1.1-2.1-4.4-4.1l7.7-2.5l-7.8-2.3L263.6,830.1z" style="fill-rule: evenodd; clip-rule: evenodd; fill: rgb(230, 163, 52);" transform="matrix(0.9999999999999999, 0, 0, 0.9999999999999999, 0, -2.1316282072803006e-14)"/><path class="st11" d="M262.5,829c-3.7,0.4-1.9-0.2-7.1-0.6c-2.6-0.2-4.5-0.3-6.7-0.2c-4,0.2-10.1,0.8-13.8,2.1&#10;&#9;&#9;&#9;&#9;&#9;c-1.8,0.6-2.9,1.3-3.6,2c-1,1-0.6,1.1-0.5,2c0.2,1.7,3.2,2.6,6.4,4.2c2.6,1.3,5.5,2.9,5.3,4.1c-0.3,1.9-7,3-11.3,2.7&#10;&#9;&#9;&#9;&#9;&#9;c-5.3-0.3-9.7-1.5-12.3-3.1c-2.8-1.8-0.2-2.7,5-4.3l-7.7-2.4c-5,1.6-8.4,2.8-8.8,4.7c-0.4,2.3,1.3,2.3,4.8,4.6l-7.2,2.3l7.8,2.3&#10;&#9;&#9;&#9;&#9;&#9;l7.3-2.3c16.9,3.4,33.2-0.6,33.7-4.1c0-0.3-0.1-0.6-0.1-0.9c0-0.7,0.2-0.5-0.2-1.1c-1.6-2-8.4-4.2-10.9-6.1&#10;&#9;&#9;&#9;&#9;&#9;c-4.6-3.5,11.5-5.5,18.7-1.5c3.6,2,1.3,2.7-0.5,3.9c-0.1,0-0.2,0.1-0.2,0.2c-0.1,0-0.2,0.1-0.2,0.2l7.5,2.2&#10;&#9;&#9;&#9;&#9;&#9;c3.6-1.3,6.1-2.7,6.5-4.1c0.5-1.9-1.1-2.1-4.5-4.1l7.7-2.5l-7.8-2.3L262.5,829z" style="fill-rule: evenodd; clip-rule: evenodd; fill: rgb(247, 184, 74);" transform="matrix(0.9999999999999999, 0, 0, 0.9999999999999999, 0, -2.1316282072803006e-14)"/><path class="st14" d="M173.5,843.3c11.9,17.3,126.5,20.6,135.9-0.2C309.2,863.6,191.1,867.4,173.5,843.3z" style="fill-rule: evenodd; clip-rule: evenodd; fill: rgb(250, 196, 47);" transform="matrix(0.9999999999999999, 0, 0, 0.9999999999999999, 0, -2.1316282072803006e-14)"/><path class="st15" d="M289.1,822.3c15,4.4,21.3,10.5,19.1,16.5c-2.7-3.6-8.6-6.9-17.8-9.6c-26.4-7.7-69.7-7.1-96.7,1.3&#10;&#9;&#9;&#9;&#9;&#9;c-11.7,3.6-18.4,8.2-20.1,12.8c-5.1-6.7,1.2-14.2,18.8-19.7C219.3,815.1,262.6,814.5,289.1,822.3z" style="fill-rule: evenodd; clip-rule: evenodd; fill: rgb(252, 222, 148);" transform="matrix(0.9999999999999999, 0, 0, 0.9999999999999999, 0, -2.1316282072803006e-14)"/><path class="st2" d="M680,1045.7l-98.9-43.6l204.5-45.6c12.2,5.4,87.6,38.2,98.7,43.7L680,1045.7z" style="fill-rule: evenodd; clip-rule: evenodd; fill: rgb(187, 217, 142);" transform="matrix(0.9999999999999999, 0, 0, 0.9999999999999999, 0, -2.1316282072803006e-14)"/><path d="M 872.9000244140625 998.7000122070312 L 679.5999755859375 1041.699951171875 L 593.2999877929688 1003.5999755859375 L 786.4000244140625 960.5 Z" class="st3" style="fill-rule: evenodd; clip-rule: evenodd; fill: rgb(84, 133, 90);" transform="matrix(0.9999999999999999, 0, 0, 0.9999999999999999, 0, -2.1316282072803006e-14)"/><path class="st2" d="M752,1020.9l-59.3,13.4c-10.9-4.4-22.4-6.2-31.5-4.5l-38.1-16.8c8-2.2,6.7-6.3-3.2-10.8l60-13.3&#10;&#9;&#9;&#9;&#9;c0.9,1.8-0.3,1.2,1.7,4.3c5.3,8.4,23.7,17.6,46.2,23.2C741.8,1019.9,743,1019.3,752,1020.9z" style="fill-rule: evenodd; clip-rule: evenodd; fill: rgb(187, 217, 142);" transform="matrix(0.9999999999999999, 0, 0, 0.9999999999999999, 0, -2.1316282072803006e-14)"/><path class="st2" d="M805.2,972.7l36.3,15.9c1.1,1,0.7,0.4-0.3,1.2c-1.2,0.9-3.8,1-3.3,3.6c0.4,2.6,4.3,3.8,7.6,6.7l-59,13.2&#10;&#9;&#9;&#9;&#9;l-1.1-2.3c-1.2-7.8-23.2-19.1-47.6-25.3c-3.6-0.9-9.3-2.1-12.2-2.6l-12-1.8l59.4-13.3c6.8,1.6,9.4,3.3,16.8,4.4&#10;&#9;&#9;&#9;&#9;C798.8,973.8,798.4,972.6,805.2,972.7z" style="fill-rule: evenodd; clip-rule: evenodd; fill: rgb(187, 217, 142);" transform="matrix(0.9999999999999999, 0, 0, 0.9999999999999999, 0, -2.1316282072803006e-14)"/><path class="st2" d="M714.7,992.3c5.6-0.9,11.7-0.3,18.3,2.2c17.2,6.7-6.5,8.7,7.5,12.8c5.1,1.5,13.6,0.5,5.4-3.6l6.6-1.4&#10;&#9;&#9;&#9;&#9;c7.3,3.5,8.2,5.8,2.6,7.6l5.1,2.4l-3.2,0.9l-5.4-2.4c-13.2,1.7-27.9-4.4-24.6-8.8c1.2-1.7,6.1-3.2,0.3-5.6&#10;&#9;&#9;&#9;&#9;c-3.4-1.4-6.8-1.7-8.9-0.8c-1.4,0.6-0.3,1.5,0.5,2.2l1.6,1.3l-5.8,1.3c-3.8-1.8-5.6-2.6-6.1-4.2c-0.4-1.1,0.1-2.1,2.6-2.9&#10;&#9;&#9;&#9;&#9;l-5.9-2.7l3.5-0.8L714.7,992.3z" style="fill-rule: evenodd; clip-rule: evenodd; fill: rgb(187, 217, 142);" transform="matrix(0.9999999999999999, 0, 0, 0.9999999999999999, 0, -2.1316282072803006e-14)"/><path class="st3" d="M663.5,1008.8c15.9-1.7,36.6,9.6,20.3,11.2C668.7,1021.5,648.1,1010.4,663.5,1008.8z" style="fill-rule: evenodd; clip-rule: evenodd; fill: rgb(84, 133, 90);" transform="matrix(0.9999999999999999, 0, 0, 0.9999999999999999, 0, -2.1316282072803006e-14)"/><path class="st3" d="M781.1,982.6c16.3-2.3,36.5,8.7,22,10.9C788.5,995.7,766.8,984.6,781.1,982.6z" style="fill-rule: evenodd; clip-rule: evenodd; fill: rgb(84, 133, 90);" transform="matrix(0.9999999999999999, 0, 0, 0.9999999999999999, 0, -2.1316282072803006e-14)"/><path class="st16" d="M1027.9,600.5L958.5,486c-2.6-4.2,2-9.2,6.4-7c12.8,6.5,31.4,11.7,52.9,4.5c42.3-14.2,92.3-33.1,73.1-15.7&#10;&#9;&#9;&#9;&#9;c-19.1,17.4,0,29.6,20.9,20.9c20.9-8.7,47-15.7,29.6,7c-17.4,22.6-50.6,105.7-50.6,105.7L1027.9,600.5z" style="fill-rule: evenodd; clip-rule: evenodd; fill: rgb(193, 120, 66);" transform="matrix(0.9999999999999999, 0, 0, 0.9999999999999999, 0, -2.1316282072803006e-14)"/><path class="st17" d="M1146.8,482.9c-1.7-4-10.6-2.7-20.9,0.6c4.1,23-29.9,91-39.7,92.5c-16.3,2.3,0-44.5-13.9-44.5&#10;&#9;&#9;&#9;&#9;s-10.5,48.8-21.5,44.7c-11-4.1-15.7-46.5-30.2-43.6c-8.7,1.7,16.8,52.9,0,45.3c-3.4-1.5-6.6-3.4-9.5-5.4l16.9,27.9l62.9,0.9&#10;&#9;&#9;&#9;&#9;c0,0,33.2-83.1,50.6-105.7C1145.4,490.5,1147,486.2,1146.8,482.9z" style="opacity: 0.23; fill-rule: evenodd; clip-rule: evenodd; fill: rgb(130, 67, 25);" transform="matrix(0.9999999999999999, 0, 0, 0.9999999999999999, 0, -2.1316282072803006e-14)"/><path class="st16" d="M1079.8,598.3c-58.3,0-49.7-5.8-92.1,34.8c-12.1,11.5-30,30.1-41.1,44.5c-20.7,26.7-49.8,64.7-61.7,106.3&#10;&#9;&#9;&#9;&#9;c-14.4,50.2,3,99,34.8,122.9c33.6,25.3,88.9,30.8,138.8,30.9c51.6,0,102.6-6.7,138.4-31.2c30.1-20.6,49.5-70,34.7-122.2&#10;&#9;&#9;&#9;&#9;C1213.3,719.7,1112.8,598.3,1079.8,598.3z" style="fill-rule: evenodd; clip-rule: evenodd; fill: rgb(193, 120, 66);" transform="matrix(0.9999999999999999, 0, 0, 0.9999999999999999, 0, -2.1316282072803006e-14)"/><path d="M 1024.599976 590.5 H 1091.899979 V 600.5 H 1024.599976 V 590.5 Z" class="st18" style="fill-rule: evenodd; clip-rule: evenodd; fill: rgb(130, 67, 25);" transform="matrix(0.9999999999999999, 0, 0, 0.9999999999999999, 0, -2.1316282072803006e-14)"/><path class="st17" d="M1231.6,784.3c-18.3-64.6-118.8-186-151.7-186c-1.1,0-2.2,0-3.3,0c52.4,39.5,86.3,102.3,86.3,173&#10;&#9;&#9;&#9;&#9;c0,66.5-29.9,125.9-77,165.7c41.9-2.2,81.6-10.3,111.1-30.5C1226.9,886,1246.4,836.5,1231.6,784.3z" style="opacity: 0.23; fill-rule: evenodd; clip-rule: evenodd; fill: rgb(130, 67, 25);" transform="matrix(0.9999999999999999, 0, 0, 0.9999999999999999, 0, -2.1316282072803006e-14)"/><path class="st19" d="M1111.8,787.7c0,11.6-4.3,21.2-12.7,28.7c-8.5,7.5-20.8,12.2-36.8,14v26.1h-16v-25.4&#10;&#9;&#9;&#9;&#9;c-19.9-0.3-36.2-3.4-48.9-9.1v-25.4c6.9,3.4,15,6.2,24.2,8.5c9.2,2.3,17.5,3.5,24.8,3.5v-45l-10.1-3.7&#10;&#9;&#9;&#9;&#9;c-13.1-5.1-22.8-11.1-28.8-18.1c-6.1-7-9.1-15.7-9.1-26c0-11.1,4.3-20.2,12.9-27.3c8.6-7.1,20.3-11.5,35.1-13v-20.2h16v19.8&#10;&#9;&#9;&#9;&#9;c16.3,0.6,31.7,3.8,46.3,9.9l-8.8,22c-12.6-5-25.1-7.9-37.5-8.9v43.8l9.1,3.5c15.2,5.9,25.8,12,31.6,18.5&#10;&#9;&#9;&#9;&#9;C1108.9,770.4,1111.8,778.3,1111.8,787.7z M1026.6,715.6c0,4.6,1.4,8.4,4.3,11.4c2.8,3,8,6.1,15.5,9v-37.4&#10;&#9;&#9;&#9;&#9;c-6.4,1-11.3,2.9-14.7,5.9C1028.3,707.5,1026.6,711.1,1026.6,715.6z M1083.5,789.5c0-4.6-1.6-8.5-4.9-11.5&#10;&#9;&#9;&#9;&#9;c-3.2-3-8.7-5.9-16.3-8.7v38.4C1076.4,805.5,1083.5,799.5,1083.5,789.5z" style="fill: rgb(250, 196, 47);" transform="matrix(0.9999999999999999, 0, 0, 0.9999999999999999, 0, -2.1316282072803006e-14)"/><path class="st8" d="M729.7,290.6c0.1,11.2,9.2,32.1,35.8,35.8c-11.7,5.1-33.6,1.5-35.8,35.8c-3.2-13.9-13.1-32.4-35.8-35.8&#10;&#9;&#9;&#9;C709.6,325.6,729.4,307.8,729.7,290.6z" style="fill-rule: evenodd; clip-rule: evenodd; fill: rgb(245, 244, 244);" transform="matrix(0.9999999999999999, 0, 0, 0.9999999999999999, 0, -1.4210854715202004e-14)"/><path class="st8" d="M729.7,290.6c0.1,11.2,9.2,32.1,35.8,35.8c-11.7,5.1-33.6,1.5-35.8,35.8c-3.2-13.9-13.1-32.4-35.8-35.8&#10;&#9;&#9;&#9;C709.6,325.6,729.4,307.8,729.7,290.6z" style="fill-rule: evenodd; clip-rule: evenodd; fill: rgb(245, 244, 244);" transform="matrix(0.9999999999999999, 0, 0, 0.9999999999999999, 0, -1.4210854715202004e-14)"/><path class="st8" d="M729.7,290.6c0.1,11.2,9.2,32.1,35.8,35.8c-11.7,5.1-33.6,1.5-35.8,35.8c-3.2-13.9-13.1-32.4-35.8-35.8&#10;&#9;&#9;&#9;C709.6,325.6,729.4,307.8,729.7,290.6z" style="fill-rule: evenodd; clip-rule: evenodd; fill: rgb(245, 244, 244);" transform="matrix(0.9999999999999999, 0, 0, 0.9999999999999999, 0, -1.4210854715202004e-14)"/><path class="st8" d="M729.7,290.6c0.1,11.2,9.2,32.1,35.8,35.8c-11.7,5.1-33.6,1.5-35.8,35.8c-3.2-13.9-13.1-32.4-35.8-35.8&#10;&#9;&#9;&#9;C709.6,325.6,729.4,307.8,729.7,290.6z" style="fill-rule: evenodd; clip-rule: evenodd; fill: rgb(245, 244, 244);" transform="matrix(0.9999999999999999, 0, 0, 0.9999999999999999, 0, -1.4210854715202004e-14)"/><path class="st8" d="M729.7,290.6c0.1,11.2,9.2,32.1,35.8,35.8c-11.7,5.1-33.6,1.5-35.8,35.8c-3.2-13.9-13.1-32.4-35.8-35.8&#10;&#9;&#9;&#9;C709.6,325.6,729.4,307.8,729.7,290.6z" style="fill-rule: evenodd; clip-rule: evenodd; fill: rgb(245, 244, 244);" transform="matrix(0.9999999999999999, 0, 0, 0.9999999999999999, 0, -1.4210854715202004e-14)"/><path class="st8" d="M729.7,290.6c0.1,11.2,9.2,32.1,35.8,35.8c-11.7,5.1-33.6,1.5-35.8,35.8c-3.2-13.9-13.1-32.4-35.8-35.8&#10;&#9;&#9;&#9;C709.6,325.6,729.4,307.8,729.7,290.6z" style="fill-rule: evenodd; clip-rule: evenodd; fill: rgb(245, 244, 244);" transform="matrix(0.9999999999999999, 0, 0, 0.9999999999999999, 0, -1.4210854715202004e-14)"/><path class="st20" d="M729.7,290.6c0.1,11.2,9.2,32.1,35.8,35.8c-11.7,5.1-33.6,1.5-35.8,35.8c-3.2-13.9-13.1-32.4-35.8-35.8&#10;&#9;&#9;&#9;C709.6,325.6,729.4,307.8,729.7,290.6z" style="fill-rule: evenodd; clip-rule: evenodd; fill: rgb(255, 255, 255);" transform="matrix(0.9999999999999999, 0, 0, 0.9999999999999999, 0, -1.4210854715202004e-14)"/><path class="st20" d="M290.4,330c0.1,11.2,9.2,32.1,35.8,35.8c-11.7,5.1-33.6,1.5-35.8,35.8c-3.2-13.9-13.1-32.4-35.8-35.8&#10;&#9;&#9;&#9;C270.3,365,290.1,347.2,290.4,330z" style="fill-rule: evenodd; clip-rule: evenodd; fill: rgb(255, 255, 255);" transform="matrix(0.9999999999999999, 0, 0, 0.9999999999999999, 0, -1.4210854715202004e-14)"/><path class="st20" d="M869.3,389.8c0,7.5,6.1,21.4,23.9,23.9c-7.8,3.4-22.4,1-23.9,23.9c-2.1-9.3-8.7-21.6-23.9-23.9&#10;&#9;&#9;&#9;C855.9,413.1,869.1,401.3,869.3,389.8z" style="fill-rule: evenodd; clip-rule: evenodd; fill: rgb(255, 255, 255);" transform="matrix(0.9999999999999999, 0, 0, 0.9999999999999999, 0, -1.4210854715202004e-14)"/><path class="st20" d="M1156.5,537.7c0.1,10.1,8.3,28.9,32.3,32.3c-10.6,4.6-30.3,1.4-32.3,32.3c-2.9-12.5-11.8-29.2-32.3-32.3&#10;&#9;&#9;&#9;C1138.4,569.2,1156.2,553.2,1156.5,537.7z" style="fill-rule: evenodd; clip-rule: evenodd; fill: rgb(255, 255, 255);" transform="matrix(0.9999999999999999, 0, 0, 0.9999999999999999, 0, -1.4210854715202004e-14)"/><path class="st20" d="M1090.5,356.6c0.1,10.7,8.8,30.7,34.2,34.2c-11.2,4.8-32.1,1.5-34.2,34.2c-3.1-13.3-12.5-31-34.2-34.2&#10;&#9;&#9;&#9;C1071.3,390,1090.2,373,1090.5,356.6z" style="fill-rule: evenodd; clip-rule: evenodd; fill: rgb(255, 255, 255);" transform="matrix(0.9999999999999999, 0, 0, 0.9999999999999999, 0, -1.4210854715202004e-14)"/><path class="st20" d="M1033.6,239.6c0.1,10.7,8.8,30.7,34.2,34.2c-11.2,4.8-32.1,1.5-34.2,34.2c-3.1-13.3-12.5-31-34.2-34.2&#10;&#9;&#9;&#9;C1014.4,273,1033.3,256,1033.6,239.6z" style="fill-rule: evenodd; clip-rule: evenodd; fill: rgb(255, 255, 255);" transform="matrix(0.9999999999999999, 0, 0, 0.9999999999999999, 0, -1.4210854715202004e-14)"/><path class="st20" d="M834.8,197.9c0.1,9.6,7.8,27.4,30.6,30.6c-10,4.3-28.7,1.3-30.6,30.6c-2.8-11.9-11.2-27.7-30.6-30.6&#10;&#9;&#9;&#9;C817.6,227.8,834.5,212.6,834.8,197.9z" style="fill-rule: evenodd; clip-rule: evenodd; fill: rgb(255, 255, 255);" transform="matrix(0.9999999999999999, 0, 0, 0.9999999999999999, 0, -1.4210854715202004e-14)"/><path class="st20" d="M495.6,249.3c0.1,12.6,10.3,35.9,40.1,40.1c-13.1,5.7-37.6,1.7-40.1,40.1c-3.6-15.6-14.7-36.3-40.1-40.1&#10;&#9;&#9;&#9;C473.1,288.5,495.3,268.6,495.6,249.3z" style="fill-rule: evenodd; clip-rule: evenodd; fill: rgb(255, 255, 255);" transform="matrix(0.9999999999999999, 0, 0, 0.9999999999999999, 0, -1.4210854715202004e-14)"/><path class="st20" d="M399.4,542.6c0.1,11.2,9.2,32.1,35.8,35.8c-11.7,5.1-33.6,1.5-35.8,35.8c-3.2-13.9-13.1-32.4-35.8-35.8&#10;&#9;&#9;&#9;C379.3,577.6,399.1,559.8,399.4,542.6z" style="fill-rule: evenodd; clip-rule: evenodd; fill: rgb(255, 255, 255);" transform="matrix(0.9999999999999999, 0, 0, 0.9999999999999999, 0, -1.4210854715202004e-14)"/><path class="st20" d="M1163.8,643.9c0.1,9.5,7.7,27,30.2,30.2c-9.9,4.3-28.3,1.3-30.2,30.2c-2.7-11.7-11-27.3-30.2-30.2&#10;&#9;&#9;&#9;C1146.9,673.4,1163.5,658.4,1163.8,643.9z" style="fill-rule: evenodd; clip-rule: evenodd; fill: rgb(255, 255, 255);" transform="matrix(0.9999999999999999, 0, 0, 0.9999999999999999, 0, -1.4210854715202004e-14)"/><path class="st20" d="M276.6,607.7c0.1,11.2,9.2,32.1,35.8,35.8c-11.7,5.1-33.6,1.5-35.8,35.8c-3.2-13.9-13.1-32.4-35.8-35.8&#10;&#9;&#9;&#9;C256.6,642.7,276.3,624.9,276.6,607.7z" style="fill-rule: evenodd; clip-rule: evenodd; fill: rgb(255, 255, 255);" transform="matrix(0.9999999999999999, 0, 0, 0.9999999999999999, 0, -1.4210854715202004e-14)"/><path class="st20" d="M626.6,383.2c0,7.4,6,21.1,23.5,23.5c-7.7,3.3-22.1,1-23.5,23.5c-2.1-9.1-8.6-21.3-23.5-23.5&#10;&#9;&#9;&#9;C613.4,406.2,626.4,394.5,626.6,383.2z" style="fill-rule: evenodd; clip-rule: evenodd; fill: rgb(255, 255, 255);" transform="matrix(0.9999999999999999, 0, 0, 0.9999999999999999, 0, -1.4210854715202004e-14)"/><path class="st20" d="M306.2,195.5c0,7.4,6,21.1,23.5,23.5c-7.7,3.3-22.1,1-23.5,23.5c-2.1-9.1-8.6-21.3-23.5-23.5&#10;&#9;&#9;&#9;C293,218.5,306,206.8,306.2,195.5z" style="fill-rule: evenodd; clip-rule: evenodd; fill: rgb(255, 255, 255);" transform="matrix(0.9999999999999999, 0, 0, 0.9999999999999999, 0, -1.4210854715202004e-14)"/><path class="st1" d="M157.4,176.4L157.4,176.4c-22.8,0-41.2,18.4-41.2,41.2v4.6c0,22.8,18.4,41.2,41.2,41.2h0&#10;&#9;&#9;&#9;c22.8,0,41.2-18.4,41.2-41.2v-4.6C198.6,194.8,180.2,176.4,157.4,176.4z" style="fill-rule: evenodd; clip-rule: evenodd; fill: rgb(245, 247, 242);" transform="matrix(0.9999999999999999, 0, 0, 0.9999999999999999, 0, -1.4210854715202004e-14)"/><path d="M 1345.00005 577.299988 A 44.200001 44.200001 0 0 1 1300.800049 621.499989 A 44.200001 44.200001 0 0 1 1256.600048 577.299988 A 44.200001 44.200001 0 0 1 1300.800049 533.099987 A 44.200001 44.200001 0 0 1 1345.00005 577.299988 Z" class="st1" style="fill-rule: evenodd; clip-rule: evenodd; fill: rgb(245, 247, 242);" transform="matrix(0.9999999999999999, 0, 0, 0.9999999999999999, 0, -1.4210854715202004e-14)"/>
</svg>