<?xml version="1.0" encoding="utf-8"?>
<svg id="master-artboard" viewBox="500 350 1200 280"
	 version="1.1" xmlns="http://www.w3.org/2000/svg" x="1px" y="0px" style="enable-background:new 0 0 1400 980;" width="1400px" height="980px"><rect id="ee-background" x="0" y="0" width="1400" height="980" style="fill: white; fill-opacity: 0; pointer-events: none;"/>





<path d="M 869.600006 257.600006 A 169.600006 169.600006 0 0 1 700 427.200012 A 169.600006 169.600006 0 0 1 530.399994 257.600006 A 169.600006 169.600006 0 0 1 700 88 A 169.600006 169.600006 0 0 1 869.600006 257.600006 Z" class="st0" style="fill: rgb(192, 165, 239); fill-opacity: 0.6;"/>

<g>
	<g>
		<path class="st1" d="M700,179.3c0.7,0.7,1.6,1.2,2.7,1.2c2,0,3.7-1.6,3.7-3.7c0-0.1,0-0.4,0.2-0.6l13.4-12.2&#10;&#9;&#9;&#9;c0.7-0.7,0.8-1.8,0.1-2.5c-0.7-0.7-1.8-0.8-2.5-0.1l-13.1,11.9c-0.2,0.2-0.3,0.1-0.4,0.1c-0.4-0.2-0.9-0.3-1.4-0.3&#10;&#9;&#9;&#9;c-0.8,0-1.6,0.3-2.2,0.7c-0.1,0.1-0.3,0.2-0.5,0.1l-9.2-3.7c-1.2-0.5-2.6,0-3.2,1.3c-0.5,1.2,0,2.6,1.3,3.2l10.8,4.4&#10;&#9;&#9;&#9;C699.9,179.1,700,179.3,700,179.3z" style="fill-rule: evenodd; clip-rule: evenodd; fill: rgb(139, 74, 222);"/>
		<path class="st1" d="M702.7,144.6c-17.7,0-32.1,14.4-32.1,32.1c0,17.7,14.4,32.1,32.1,32.1c17.7,0,32.1-14.3,32.1-32.1&#10;&#9;&#9;&#9;C734.8,159,720.4,144.6,702.7,144.6z M677.4,180.2h1.2c1.9,0,3.5-1.6,3.5-3.5c0-1.9-1.6-3.5-3.5-3.5h-1.2&#10;&#9;&#9;&#9;c1.5-11.3,10.5-20.3,21.8-21.8v1.2c0,1.9,1.6,3.5,3.5,3.5s3.5-1.6,3.5-3.5v-1.2c11.3,1.5,20.3,10.5,21.8,21.8h-1.2&#10;&#9;&#9;&#9;c-1.9,0-3.5,1.6-3.5,3.5c0,1.9,1.6,3.5,3.5,3.5l1.2,0c-1.6,11.3-10.5,20.2-21.8,21.8v-1.2c0-1.9-1.6-3.5-3.5-3.5&#10;&#9;&#9;&#9;c-1.9,0-3.5,1.6-3.5,3.5v1.2C687.9,200.4,679,191.5,677.4,180.2z" style="fill-rule: evenodd; clip-rule: evenodd; fill: rgb(139, 74, 222);"/>
	</g>
	<path class="st2" d="M828.1,231.9c-1.3-0.4-2.6,0.3-3,1.6c-0.4,1.3,0.3,2.6,1.6,3c0.2,0.1,17.5,5.8,17.5,21.2&#10;&#9;&#9;c0,7.3-1.8,12.4-5.1,15c-0.4-9.2-5.3-18.1-11.4-20.6c-3.9-1.6-7.9-0.6-11.3,2.9c-4.1,4.2-4.7,9.5-1.8,14.6&#10;&#9;&#9;c3.3,5.6,11.2,10.5,18.9,10.1c-1,3.3-3.3,6.7-7.9,8.6c-5.2,2.1-9.8,2.2-13.8,0.3c-3.6-1.8-6.1-5-7.9-8c0.1-1.1,0.1-2.3,0.2-3.4&#10;&#9;&#9;c-0.1,0.2-0.2,0.5-0.2,0.7c0.6-16.6-5.9-30-12-38.9c-0.1-0.2-0.2-0.4-0.4-0.5c-0.3-0.5-0.7-0.9-1-1.4c-4.7-6.4-8.9-9.9-8.9-10&#10;&#9;&#9;c-13.4-12.8-31.9-22.4-53.1-26.9c-2.6,2.9-5.7,5.3-9.2,7.2c-0.6,0.4-1.2,0.8-1.8,1.1c4.2,0.4,8.3,0.9,12.4,1.5l-0.6,3.8&#10;&#9;&#9;c-15-2.9-39.6-2.8-56.3,0l-0.6-3.8c4.9-0.8,9.8-1.3,14.7-1.7c-1.2-0.7-2.3-1.5-3.4-2.3c-2.8-1.8-5.3-4-7.4-6.5&#10;&#9;&#9;c-13.9,2.5-26.7,7.2-37.8,13.5c-6.3,3.6-13.6,5-20.7,4.1c-5-0.6-10.8-1-17.4-1l9.1,22.7c-6.1,8.6-10.1,18.1-11.7,28.3&#10;&#9;&#9;c-0.8,5.3-5.3,9.2-10.7,9.2v31.4c10.5,0,20.5,4.6,27.5,12.5c4,4.5,8.5,8.7,13.6,12.4c3.7,2.8,5.4,7.6,4.1,12l-4.8,17.5&#10;&#9;&#9;c-1.2,4.3,2.1,8.6,6.6,8.6h13.4c3.1,0,5.8-2.1,6.6-5l1.7-6.2c1.6-5.9,7.6-9.5,13.6-8.1c9.9,2.4,20.4,3.7,31.3,3.7&#10;&#9;&#9;c10.9,0,21.5-1.3,31.4-3.7c6-1.4,12,2.2,13.6,8.1l1.6,6.1c0.8,3,3.5,5.1,6.6,5.1h13.4c4.5,0,7.7-4.2,6.6-8.6l-4.7-17.7&#10;&#9;&#9;c-1.2-4.5,0.5-9.2,4.1-12c8.2-6.1,15.1-13.3,20.2-21.3c0,0,0,0,0,0c4.7-7.3,8-15.2,9.6-23.6c1.8,2.1,4,3.9,6.6,5.3&#10;&#9;&#9;c2.6,1.3,5.3,1.9,8.2,1.9c3,0,6.2-0.7,9.5-2.1c6.1-2.5,10.1-7.6,11.3-14.2c4.5-1.9,10.3-7,10.3-20.8&#10;&#9;&#9;C849,238.8,829,232.2,828.1,231.9z M625.1,264.6c-2,0-3.7-1.7-3.7-3.7s1.7-3.7,3.7-3.7c2,0,3.7,1.7,3.7,3.7&#10;&#9;&#9;S627.2,264.6,625.1,264.6z M834.3,274.7c-6,0.8-12.9-3.1-15.5-7.6c-1.9-3.2-1.5-6.2,1.1-8.8c1.4-1.4,2.8-2.1,4.2-2.1&#10;&#9;&#9;c0.6,0,1.2,0.1,1.8,0.4c4.6,1.9,8.5,9.8,8.5,17.4C834.3,274.1,834.3,274.4,834.3,274.7z" style="fill: rgb(139, 74, 222);"/>
</g>





</svg>