<?xml version="1.0" encoding="utf-8"?>
<svg id="master-artboard" viewBox="0 0 258.5509948730469 273.2622375488281" version="1.1" xmlns="http://www.w3.org/2000/svg" x="0px" y="0px" style="enable-background:new 0 0 1000 1000;" width="258.5509948730469px" height="273.2622375488281px"><rect id="ee-background" x="0" y="0" width="258.5509948730469" height="273.2622375488281" style="fill: white; fill-opacity: 0; pointer-events: none;"/>

<path d="M903.3,229.6c-3-4.4-10.1-2.7-14.1-1c-9,3.9-18.1,6.9-27.2,10.3c-1.4,0.5-2.8,0.8-4.2,1.1c0.6-1,1.1-2,1.4-3.2&#10;&#9;&#9;&#9;c1.6-6.1-0.4-11.3-6.3-13.8c-7.2-2.9-14.4,1-21.7,1.3c-7.9,0.4-17.2-2.1-23.8-6.4c-6.7-4.4-14-5.5-21.8-6.7&#10;&#9;&#9;&#9;c-4.4-0.7-10-1.9-14.3-0.1c-0.4-2.7-0.9-5.4-1.2-8.2c-0.4-8-6.1-8.6-12.8-8.7c-7.4-0.2-16.5,1.6-23.3,4.8&#10;&#9;&#9;&#9;c-7.7,3.7-5.6,11.2-5,18.2c0.8,9.4,2,18.6,1.8,28c-0.1,4.8,0.3,9.6,0.5,14.5c0.2,5.4,0,10.7,0.7,16.1c0.4,3.1,0.5,7,2.2,9.7&#10;&#9;&#9;&#9;c1.9,2.9,5.9,4.2,9.1,5c3.6,0.9,7.1,0.5,10.7-0.3c4.4-1,9-2.8,13.1-4.6c5.1-2.2,6.4-6.2,6.6-10.8c7.3,1.3,14.4,3.1,21.7,4&#10;&#9;&#9;&#9;c8.4,1,16.8,2.1,25.3,2.8c3.8,0.3,7.5-0.4,11.3-0.4c3.5,0,7.1-0.1,10.4-1.2c7-2.3,13.6-6.5,19.7-10.6c6.3-4.2,13.3-7.4,19.8-11.4&#10;&#9;&#9;&#9;c2.7-1.6,5.9-2.9,8.3-5c2.6-2.3,4.8-4.7,7.5-6.9C901.5,242.8,906.5,234.3,903.3,229.6z M761.9,278.7c-3.7,1.2-6.9,3-10.8,3.8&#10;&#9;&#9;&#9;c-3.2,0.6-8.5,0.6-10.3-2.3c-0.8-1.3-0.8-5-1-6.3c-0.3-2.5-0.3-4.9-0.3-7.4c-0.1-4.6-0.3-9.1-0.5-13.7c-0.2-4.3,0-8.4,0-12.7&#10;&#9;&#9;&#9;c0.1-4.5-0.7-8.7-1.2-13.1c-0.4-4.4-0.7-8.8-1-13.2c-0.3-3.7-1.8-6.8,2.6-8.3c3-1,22.6-5.8,22.7-2.6c0.5,4.8,1.7,9.5,1.9,14.2&#10;&#9;&#9;&#9;c0.2,4.2-0.5,8.5-0.8,12.7c-0.7,8.9,0.1,17.4,1,26.2c0.4,4.5,1.2,9.2,1.3,13.8c0,1.5,0.1,3.1,0.1,4.6&#10;&#9;&#9;&#9;C765.6,277.6,764.8,277.8,761.9,278.7z M894.2,238.1c-2,2.8-5.7,4.7-8,7.3c-2.6,2.9-6.4,4.4-9.7,6.4c-7.1,4.4-14.5,8-21.6,12.5&#10;&#9;&#9;&#9;c-3.8,2.4-7.6,4.6-11.7,6.5c-4.5,2-8.6,1.9-13.4,2.1c-3.9,0.1-7.5,0.6-11.4,0.2c-5-0.5-10-1-15-1.6c-5.5-0.7-11.1-1.2-16.5-2.1&#10;&#9;&#9;&#9;c-4.5-0.8-8.9-2.2-13.4-2.9c-0.9-10.1-2.8-20.2-2.5-30.3c0.2-5.4,1-10.7,1.2-16c0.6-0.2,1.1-0.5,1.6-1.1c1.6-1.8,6.1-0.8,8-0.5&#10;&#9;&#9;&#9;c3,0.4,6.1,0.8,9,1.3c5.7,1,9.9,3.6,14.8,6.2c8.8,4.8,20.2,7.3,30,5.7c3.9-0.6,13.7-4.7,15.9,0.1c2.2,4.9-5.6,8.2-8.9,9.4&#10;&#9;&#9;&#9;c-1.5,0.5-3.1,1-4.8,1.4c-1.5-0.5-3.1-0.1-4.2,0.8c-7.7,1.2-16.2,0.7-22.7-2.1c-4.7-2-8.8,4.9-4,6.9c8.8,3.8,19.8,4.5,29.9,2.7&#10;&#9;&#9;&#9;c5.1,2.1,11.1,1.2,16.4-0.6c1.7-0.6,3.1-1.7,4.7-2.2c2-0.7,4.2-0.9,6.3-1.6c4.2-1.5,8.3-2.8,12.5-4.3c4.5-1.6,8.9-3.4,13.2-5.3&#10;&#9;&#9;&#9;c0.9-0.4,1.8-0.8,2.7-1.2c0.9-0.5,1.9-0.7,3-0.8C895.2,236,894.8,237.1,894.2,238.1z" transform="matrix(0.9999999999999999, 0, 0, 0.9999999999999999, -695.0148360872897, -65.9065933227539)"/><path d="M752,263.7c-0.2-0.1-0.4-0.2-0.6-0.3c-0.9-0.5-1.9-0.6-2.9-0.4c-3.1,0.8-4.6,3.9-4.1,7c0.5,2.6,3,4.8,5.6,4.8&#10;&#9;&#9;&#9;c3,0,5.1-2.4,5.3-5.3C755.4,267.2,754.1,264.8,752,263.7z" transform="matrix(0.9999999999999999, 0, 0, 0.9999999999999999, -695.0148360872897, -65.9065933227539)"/><path d="M907.2,164.5c-5.2-17.8-23.6-29.7-41.7-28.1c-2.1-0.8-4.5-0.8-6.7,0.1c-4.4,1.8-9,4.1-13.2,6.3&#10;&#9;&#9;&#9;c-7.9,4.1-13.6,11.1-17.1,19.2c-6.6,15.1-9.5,37,6.3,47.4c3.6,2.4,7.7,4.7,11.8,5.9c4.8,1.4,9.4,3.6,14.5,3.5&#10;&#9;&#9;&#9;c8.8,0,18.8-1.3,26.3-6.4c7.4-5.1,14.6-12.2,17.9-20.6C908.5,183.8,909.6,172.8,907.2,164.5z M899.6,182.7&#10;&#9;&#9;&#9;c-1.4,7.9-5.5,13.5-11.3,18.8c-11.4,10.4-27.2,11.2-41,5.5c-7-2.8-12.8-7.1-15.2-14.5c-2.1-6.5-0.3-14.1,1.4-20.5&#10;&#9;&#9;&#9;c1.9-6.9,5-13.6,10.4-18.4c3.3-2.9,7.3-4.6,11.2-6.4c1.4-0.6,3.5-2.1,5.4-2.8c0.8,0.4,1.7,0.6,2.8,0.4c0.2,0,0.5-0.1,0.7-0.1&#10;&#9;&#9;&#9;c1.5,0.8,2.9,0.4,3.9-0.5c5.2-0.3,10.6,0.7,15.1,3.3c6.4,3.7,10.8,8.1,14.4,14.5C900.9,168.2,900.8,175.7,899.6,182.7z" transform="matrix(0.9999999999999999, 0, 0, 0.9999999999999999, -695.0148360872897, -65.9065933227539)"/><path d="M818.5,127.8c-0.7-5-3.1-9.8-5.3-14.3c-2.1-4.3-4.4-5.6-8.5-7.7c-2-1-3.4-2.7-5.3-3.8c-1.6-0.9-3.4-1.3-5.1-1.8&#10;&#9;&#9;&#9;c-5.1-1.7-8.9-2.7-14.2-2.6c0,0,0,0,0,0c0,0,0,0,0,0c-0.2,0-0.4,0-0.6,0c-0.2,0-0.3,0-0.5,0.1c-7.9,0.5-15.8,4.4-22.9,7.8&#10;&#9;&#9;&#9;c-6.9,3.3-11.5,11.7-14,18.6c-5.9,16.3-3,37.1,11.6,48c3.3,2.5,6.6,4.4,10.7,5.2c4.7,1,9.4,1.1,14,1.9c7.8,1.4,15.3-0.6,21.9-4.7&#10;&#9;&#9;&#9;C815.6,164.9,821,145,818.5,127.8z M810.8,136.2c-0.1,8.9-1.9,18.6-7.8,25.6c-5.2,6.2-14.3,11-22.5,9.6c-4.1-0.7-8.3-0.9-12.4-1.6&#10;&#9;&#9;&#9;c-4.5-0.8-7.9-2.5-11.4-5.5c-7.4-6.3-9.1-15.6-9.3-24.8c-0.2-8.5,3.2-17.8,8.8-24.3c2.7-3.1,7.2-4.3,10.9-5.8&#10;&#9;&#9;&#9;c4.3-1.8,8.3-3.7,13-3.8c4.5,0,7.8,0.8,12.1,2.4c3.3,1.2,5.5,3.2,8.5,4.8c2.1,1.1,3.6,1.6,5,3.6c1.3,1.9,2.2,4.6,3.1,6.7&#10;&#9;&#9;&#9;C810.6,127.4,810.9,131.5,810.8,136.2z" transform="matrix(0.9999999999999999, 0, 0, 0.9999999999999999, -695.0148360872897, -65.9065933227539)"/><path d="M779.5,133c-2.5-2.6-1.4-7.1,2.2-8.2c4.1-1.2,4.3,3.4,7.2,4.9c4.6,2.4,8.6-4.5,4-6.9c1.1,0.6-0.9-1.9-1.3-2.4&#10;&#9;&#9;&#9;c-0.7-0.9-1.6-1.7-2.6-2.3c-1.5-0.9-3.3-1.3-5.1-1.4c1-0.7,1.6-1.8,1.6-3.2c0-2-0.2-4.1-1.8-5.5c-0.8-0.7-1.7-1.2-2.8-1.2&#10;&#9;&#9;&#9;c-1,0-2.2,0.4-2.8,1.2c-0.7,0.8-1.2,1.8-1.2,2.8c0,0.8,0.2,1.6,0.7,2.3c0,0.1,0,0.3,0,0.4c0,1.5,0.9,2.9,2.2,3.6&#10;&#9;&#9;&#9;c-5.1,1.3-8.8,5.8-9.4,11.1c-0.8,6.9,2.5,10.2,7.9,13.8c2.7,1.8,8,3.4,7.6,7.3c-0.6,5.6-5.9,5.9-9.4,2.7c-3.8-3.4-9.5,2.2-5.7,5.7&#10;&#9;&#9;&#9;c2,1.8,4.7,3.4,7.5,4.1v2.4c0,2.1,1.8,4.1,4,4c2.2-0.1,4-1.8,4-4v-2.7c0-0.1,0-0.2,0-0.2c0.4-0.2,0.7-0.4,1-0.6&#10;&#9;&#9;&#9;c4.8-3.3,8-10,6.1-15.7C791,138.5,783.9,137.4,779.5,133z" transform="matrix(0.9999999999999999, 0, 0, 0.9999999999999999, -695.0148360872897, -65.9065933227539)"/><path d="M862.5,175c-2.5-2.6-1.4-7.1,2.2-8.2c4.1-1.2,4.3,3.4,7.2,4.9c4.6,2.4,8.6-4.5,4-6.9c1.1,0.6-0.9-1.9-1.3-2.4&#10;&#9;&#9;&#9;c-0.7-0.9-1.6-1.7-2.6-2.3c-1.5-0.9-3.3-1.3-5.1-1.4c1-0.7,1.6-1.8,1.6-3.2c0-2-0.2-4.1-1.8-5.5c-0.8-0.7-1.7-1.2-2.8-1.2&#10;&#9;&#9;&#9;c-1,0-2.2,0.4-2.8,1.2c-0.7,0.8-1.2,1.8-1.2,2.8c0,0.8,0.2,1.6,0.7,2.3c0,0.1,0,0.3,0,0.4c0,1.5,0.9,2.9,2.2,3.6&#10;&#9;&#9;&#9;c-5.1,1.3-8.8,5.8-9.4,11.1c-0.8,6.9,2.5,10.2,7.9,13.8c2.7,1.8,8,3.4,7.6,7.3c-0.6,5.6-5.9,5.9-9.4,2.7c-3.8-3.4-9.5,2.2-5.7,5.7&#10;&#9;&#9;&#9;c2,1.8,4.7,3.4,7.5,4.1v2.4c0,2.1,1.8,4.1,4,4c2.2-0.1,4-1.8,4-4v-2.7c0-0.1,0-0.2,0-0.2c0.4-0.2,0.7-0.4,1-0.6&#10;&#9;&#9;&#9;c4.8-3.3,8-10,6.1-15.7C874,180.5,866.8,179.4,862.5,175z" transform="matrix(0.9999999999999999, 0, 0, 0.9999999999999999, -695.0148360872897, -65.9065933227539)"/>
</svg>